<?xml version="1.0" encoding="UTF-8" standalone="no"?>
<svg
   xmlns:dc="http://purl.org/dc/elements/1.1/"
   xmlns:cc="http://creativecommons.org/ns#"
   xmlns:rdf="http://www.w3.org/1999/02/22-rdf-syntax-ns#"
   xmlns:svg="http://www.w3.org/2000/svg"
   xmlns="http://www.w3.org/2000/svg"
   viewBox="0 0 188.976 302.36267"
   height="302.36267"
   width="188.976"
   xml:space="preserve"
   id="svg2"
   version="1.1"><metadata
     id="metadata8"><rdf:RDF><cc:Work
         rdf:about=""><dc:format>image/svg+xml</dc:format><dc:type
           rdf:resource="http://purl.org/dc/dcmitype/StillImage" /></cc:Work></rdf:RDF></metadata><defs
     id="defs6"><clipPath
       id="clipPath20"
       clipPathUnits="userSpaceOnUse"><path
         id="path18"
         d="M 0,0 H 141.732 V 226.771 H 0 Z" /></clipPath><clipPath
       id="clipPath28"
       clipPathUnits="userSpaceOnUse"><path
         id="path26"
         d="M -35.0832,142.897 H 43.6983 V 116.134 H -35.0832 Z" /></clipPath><clipPath
       id="clipPath52"
       clipPathUnits="userSpaceOnUse"><path
         id="path50"
         d="m 136.476,134.172 h 42.526 v -24.425 h -42.526 z" /></clipPath><clipPath
       id="clipPath116"
       clipPathUnits="userSpaceOnUse"><path
         id="path114"
         d="M 97.2982,172.149 H 179.85 V 140.036 H 97.2982 Z" /></clipPath><clipPath
       id="clipPath164"
       clipPathUnits="userSpaceOnUse"><path
         id="path162"
         d="M -63.3508,112.015 H 14.5511 V 81.7104 h -77.9019 z" /></clipPath><clipPath
       id="clipPath184"
       clipPathUnits="userSpaceOnUse"><path
         id="path182"
         d="M 66.4157,112.608 H 122.519 V 87.7296 H 66.4157 Z" /></clipPath><clipPath
       id="clipPath252"
       clipPathUnits="userSpaceOnUse"><path
         id="path250"
         d="M 11.2526,76.6658 H 51.3828 V 53.6161 H 11.2526 Z" /></clipPath><clipPath
       id="clipPath272"
       clipPathUnits="userSpaceOnUse"><path
         id="path270"
         d="M -72.5164,83.9493 H 5.38542 V 53.645 H -72.5164 Z" /></clipPath></defs><g
     transform="matrix(1.3333333,0,0,-1.3333333,0,302.36267)"
     id="g10"><path
       id="path12"
       style="fill:#b93666;fill-opacity:1;fill-rule:nonzero;stroke:none"
       d="M 0,0 H 141.732 V 226.771 H 0 Z" /><g
       id="g14"><g
         clip-path="url(#clipPath20)"
         id="g16"><g
           id="g22"><g
             id="g24" /><g
             id="g44"><g
               style="opacity:0.19999701"
               id="g42"
               clip-path="url(#clipPath28)"><g
                 id="g32"
                 transform="translate(26.0149,127.0954)"><path
                   id="path30"
                   style="fill:#f5f0e8;fill-opacity:1;fill-rule:nonzero;stroke:none"
                   d="m 0,0 c -1.102,-3.305 -3.839,-8.373 -6.201,-8.373 -0.756,0 -1.165,0.724 -1.165,2.203 0,4.471 3.494,12.056 6.579,12.056 C 0.252,5.886 0.63,4.753 0.63,3.401 0.599,2.015 0.315,1.008 0,0 m 9.31,-0.95 c 1.039,3.429 2.896,6.861 4.879,6.861 0.818,0 1.101,-0.755 1.101,-1.826 0,-2.393 -1.51,-4.753 -5.068,-5.917 C 9.531,-2.02 9.153,-1.644 9.31,-0.95 m 7.145,-1.953 c -1.636,-3.682 -3.652,-5.886 -5.634,-5.886 -1.29,0 -2.36,0.851 -2.36,2.896 0,0.629 0.062,1.384 0.219,2.205 0.127,0.66 0.818,1.351 1.479,1.509 4.722,1.26 7.524,3.871 7.524,6.202 0,1.669 -1.322,2.645 -3.179,2.645 -3.538,0 -7.039,-4.324 -8.491,-8.751 C 5.85,-2.388 5.711,-2.659 5.665,-2.769 3.904,-6.548 2.771,-8.184 1.92,-8.184 c -0.099,0 -0.185,0.02 -0.256,0.058 -0.247,0.129 -0.336,0.477 -0.274,1.028 v 0.003 c 0.014,0.119 0.035,0.246 0.063,0.383 v 0.003 c 0.069,0.344 0.183,0.745 0.341,1.2 l 2.392,7.681 c 0.61,1.971 1.713,4.879 2.764,7.573 0.846,2.169 1.656,4.2 2.147,5.491 0.157,0.409 0.157,0.566 -0.189,0.566 -0.409,0 -1.071,-0.284 -1.826,-0.535 C 6.831,15.162 6.5,15.069 6.122,14.985 5.866,14.929 5.66,14.743 5.578,14.494 L 4.793,12.122 C 4.747,11.954 4.69,11.774 4.628,11.584 L 4.006,9.745 2.203,4.407 C 1.982,3.745 1.669,3.778 1.511,4.438 1.07,5.918 0.378,6.8 -1.102,6.8 c -4.407,0 -9.443,-7.743 -9.443,-13.348 0,-2.454 0.976,-4.217 2.833,-4.217 2.99,0 5.352,4.722 6.358,6.894 0.19,0.315 0.378,0.503 0.567,0.503 0.188,0 0.315,-0.221 0.188,-0.598 L -1.133,-5.54 c -0.242,-0.686 -0.439,-1.227 -0.584,-1.682 l -0.01,-0.028 c -0.188,-0.597 -0.287,-1.042 -0.287,-1.468 0,-0.825 0.258,-1.531 1.198,-1.803 h 0.003 c 0.061,-0.018 0.125,-0.034 0.193,-0.047 0.002,-0.002 0.002,-0.002 0.003,0 0.058,-0.014 0.119,-0.024 0.182,-0.032 0.151,-0.023 0.316,-0.036 0.498,-0.039 2.193,-0.027 4.006,3.143 5.352,6.005 -0.068,-0.494 -0.103,-0.978 -0.103,-1.447 0,-3.115 1.636,-4.847 4.123,-4.847 3.715,0 6.202,4.941 7.524,7.9 0.188,0.442 -0.283,0.66 -0.504,0.125" /></g><g
                 id="g36"
                 transform="translate(-7.8867,117.1107)"><path
                   id="path34"
                   style="fill:#f5f0e8;fill-opacity:1;fill-rule:nonzero;stroke:none"
                   d="m 0,0 c -1.354,0 -1.857,1.323 -1.857,3.211 0,5.037 3.147,12.559 5.855,12.559 1.321,0 1.888,-1.352 1.888,-3.274 C 5.886,7.461 2.706,0 0,0 m 4.248,16.684 c -4.657,0 -9.191,-6.201 -9.191,-12.182 0,-3.336 1.888,-5.414 4.659,-5.414 4.691,0 9.223,6.17 9.223,12.119 0,3.305 -1.888,5.477 -4.691,5.477" /></g><g
                 id="g40"
                 transform="translate(16.0432,131.4643)"><path
                   id="path38"
                   style="fill:#f5f0e8;fill-opacity:1;fill-rule:nonzero;stroke:none"
                   d="m 0,0 c 0,-1.672 -1.219,-4.539 -2.824,-8.452 -0.006,-0.019 -0.014,-0.035 -0.021,-0.053 -0.17,-0.422 -0.338,-0.861 -0.5,-1.316 -0.473,-1.364 -0.537,-2.354 -0.541,-3.061 -10e-4,-0.467 0.023,-0.812 -0.026,-1.063 -0.107,-0.724 -0.876,-1.218 -1.704,-1.349 -0.145,-0.024 -0.292,-0.036 -0.437,-0.036 -1.354,0 -2.122,0.81 -1.271,3.297 l 10e-4,0.007 c 0.096,0.321 0.22,0.684 0.378,1.113 l 0.008,0.023 c 0.089,0.241 0.187,0.501 0.295,0.787 0.503,1.242 1.005,2.444 1.46,3.552 1.082,2.634 1.908,4.745 1.908,5.608 0,0.692 -0.221,1.007 -0.661,1.007 -1.448,0 -4.816,-3.273 -7.145,-9.821 -0.788,-2.266 -0.442,-3.495 -0.567,-4.123 -0.125,-0.851 -1.164,-1.386 -2.141,-1.386 -1.354,0 -2.172,0.787 -1.321,3.274 l 3.21,9.254 c 0.56,1.772 0.607,2.322 0.671,3.096 0.12,1.44 0.631,1.972 1.474,1.972 1.424,0 1.692,-1.111 1.692,-1.939 0,-0.632 -0.374,-1.555 -1.004,-3.129 l -0.881,-2.235 c -0.158,-0.44 -0.064,-0.598 0.094,-0.598 0.157,0 0.347,0.127 0.535,0.473 2.645,4.847 4.721,7.397 6.988,7.397 C -0.787,2.299 0,1.354 0,0" /></g></g></g></g><g
           id="g46"><g
             id="g48" /><g
             id="g60"><g
               style="opacity:0.19999701"
               id="g58"
               clip-path="url(#clipPath52)"><g
                 id="g56"
                 transform="translate(146.8087,126.6187)"><path
                   id="path54"
                   style="fill:#f5f0e8;fill-opacity:1;fill-rule:nonzero;stroke:none"
                   d="m 0,0 c -1.342,-3.714 -4.059,-7.834 -6.025,-7.834 -0.75,0 -1.154,0.623 -1.154,2.309 0,4.432 3.463,11.767 6.523,11.767 1.03,0 1.405,-0.905 1.405,-2.465 C 0.749,2.777 0.498,1.529 0,0 m 18.821,7.148 c -0.999,0 -1.873,-0.531 -1.997,-1.374 -0.157,-0.623 0.063,-1.842 -0.719,-4.088 -2.309,-6.711 -5.649,-9.459 -6.961,-9.459 -0.655,0 -0.873,0.282 -0.873,0.937 0,1.529 1.811,5.119 3.403,8.959 0.56,1.373 0.936,2.559 0.936,3.308 0,1.343 -0.968,2.123 -3.527,2.123 C 6.397,7.554 3.807,6.399 2.434,4.4 2.091,3.808 1.747,3.871 1.653,4.557 1.341,6.086 0.623,7.148 -0.968,7.148 c -4.371,0 -9.365,-7.679 -9.365,-13.235 0,-2.372 0.969,-4.12 2.872,-4.12 2.559,0 4.839,4.151 5.962,6.305 0.157,0.343 0.343,0.468 0.561,0.468 0.188,0 0.313,-0.156 0.156,-0.562 l -3.049,-8.108 -0.002,-0.003 -0.506,-1.346 c -0.06,-0.152 -0.195,-0.503 -0.205,-0.538 -0.485,-1.591 -0.31,-2.391 0.32,-2.708 0.01,-0.006 0.022,-0.011 0.033,-0.016 0.233,-0.111 0.521,-0.157 0.858,-0.157 0.292,0 0.59,0.048 0.866,0.139 0.013,0.003 0.025,0.008 0.036,0.013 0.485,0.166 0.774,0.488 0.919,0.912 0.011,0.033 0.021,0.066 0.031,0.099 0.33,1.022 0.391,2.23 0.876,4.214 0.112,0.46 0.519,1.769 0.521,1.774 l 2.095,6.142 1.515,4.047 C 5.429,5.837 6.46,6.866 8.24,6.866 9.206,6.866 9.582,6.368 9.582,5.4 9.582,4.588 9.144,3.528 8.645,2.34 8.24,1.28 4.992,-5.057 4.992,-8.053 c 0,-1.28 0.813,-2.217 2.248,-2.217 2.529,0 3.996,2.123 6.68,6.493 0.344,0.53 0.531,0.686 0.656,0.686 0.157,0 0.281,-0.156 0.094,-0.623 L 14.49,-4.199 14.378,-4.496 14.076,-5.307 C 14.039,-5.405 14.004,-5.499 13.968,-5.591 L 13.946,-5.644 13.501,-6.83 c -0.025,-0.062 -0.061,-0.158 -0.099,-0.252 -0.005,-0.013 -0.01,-0.026 -0.015,-0.04 -0.005,-0.014 -0.011,-0.029 -0.016,-0.044 0,-0.002 0,-0.005 -0.002,-0.007 -0.038,-0.097 -0.068,-0.179 -0.073,-0.194 -0.485,-1.592 -0.31,-2.392 0.32,-2.708 0.01,-0.007 0.022,-0.012 0.033,-0.017 0.173,-0.082 0.378,-0.128 0.609,-0.148 0.079,-0.005 0.163,-0.009 0.249,-0.009 0.292,0 0.59,0.048 0.866,0.139 0.013,0.003 0.025,0.008 0.036,0.013 0.485,0.167 0.774,0.488 0.919,0.912 0.011,0.033 0.021,0.066 0.031,0.099 0.111,0.343 0.198,0.789 0.284,1.301 10e-4,0.011 0.003,0.021 0.005,0.031 0.358,2.178 0.894,4.322 1.617,6.407 0.615,1.775 1.384,3.964 1.868,5.249 0.841,2.497 0,3.246 -1.312,3.246" /></g></g></g></g><g
           transform="translate(91.6666,140.8139)"
           id="g62"><path
             id="path64"
             style="fill:#f5f0e8;fill-opacity:1;fill-rule:nonzero;stroke:none"
             d="m 0,0 c -1.227,0 -2.045,-0.755 -2.045,-1.951 0,-1.166 0.818,-1.953 2.045,-1.953 1.197,0 1.984,0.787 1.984,1.953 C 1.984,-0.755 1.197,0 0,0" /></g><g
           transform="translate(92.1564,131.456)"
           id="g66"><path
             id="path68"
             style="fill:#f5f0e8;fill-opacity:1;fill-rule:nonzero;stroke:none"
             d="m 0,0 c -0.087,-0.684 -0.341,-1.473 -0.818,-2.792 l -1.563,-4.499 c -0.59,-1.696 -1.057,-3.435 -1.357,-5.205 -0.002,-0.012 -0.004,-0.024 -0.006,-0.035 -0.008,-0.05 -0.016,-0.101 -0.025,-0.15 -10e-4,-0.012 -0.003,-0.022 -0.005,-0.032 -0.085,-0.516 -0.173,-0.966 -0.285,-1.311 -0.01,-0.033 -0.02,-0.067 -0.031,-0.1 -0.147,-0.427 -0.437,-0.751 -0.927,-0.919 -0.012,-0.005 -0.023,-0.01 -0.036,-0.013 -0.157,-0.053 -0.32,-0.091 -0.487,-0.112 -0.129,-0.018 -0.257,-0.028 -0.386,-0.028 -0.086,0 -0.171,0.003 -0.251,0.008 -0.232,0.02 -0.438,0.068 -0.613,0.15 -0.012,0.005 -0.023,0.01 -0.033,0.017 -0.635,0.319 -0.811,1.124 -0.323,2.729 0.005,0.015 0.034,0.099 0.072,0.196 0.002,0.002 0.002,0.005 0.002,0.007 0.007,0.013 0.011,0.028 0.016,0.041 0.002,0.002 0.002,0.002 0.002,0.003 0.127,0.523 0.332,1.157 0.633,2.013 l 0.706,1.987 1.806,5.311 c 0.556,1.527 0.475,3.394 0.536,3.644 0.116,0.779 0.645,1.338 1.544,1.417 0.082,0.01 0.167,0.013 0.252,0.013 C -0.435,2.34 0.355,1.776 0,0" /></g><g
           transform="translate(95.8806,126.1767)"
           id="g70"><path
             id="path72"
             style="fill:#f5f0e8;fill-opacity:1;fill-rule:nonzero;stroke:none"
             d="M 0,0 C 1.039,3.43 2.896,6.863 4.879,6.863 5.697,6.863 5.98,6.107 5.98,5.037 5.98,2.644 4.47,0.284 0.912,-0.881 0.221,-1.07 -0.157,-0.693 0,0 m 26.655,12.213 c -5.886,0 -9.348,-6.925 -12.559,-14.604 -0.156,-0.347 -0.63,-0.378 -0.44,0.125 l 1.826,4.784 c 0.598,1.574 0.976,2.361 1.007,3.149 0.032,1.006 -0.409,1.888 -2.078,1.92 C 11.736,7.649 9.406,2.959 8.022,-0.157 8.019,-0.165 7.151,-1.938 7.145,-1.951 5.227,-6.031 3.493,-7.837 1.511,-7.837 c -1.29,0 -2.36,0.849 -2.36,2.896 0,0.628 0.062,1.384 0.219,2.203 0.127,0.66 0.818,1.353 1.479,1.511 4.722,1.258 7.524,3.871 7.524,6.201 0,1.668 -1.322,2.644 -3.18,2.644 -4.627,0 -9.191,-7.397 -9.191,-12.749 0,-3.115 1.636,-4.847 4.123,-4.847 3.568,0 6.004,4.559 7.361,7.54 0.012,0.02 0.02,0.042 0.03,0.06 0.044,0.102 0.089,0.203 0.133,0.3 l 0.002,0.002 c 0.005,0.013 0.01,0.026 0.015,0.038 0.01,0.028 0.884,1.815 0.897,1.845 1.763,3.778 3.142,5.355 3.991,5.355 0.693,-0.031 0.724,-0.943 0.094,-2.706 l -3.021,-9.16 c -0.85,-2.487 -0.032,-3.274 1.322,-3.274 0.975,0 2.046,0.534 2.14,1.385 0.127,0.85 -0.157,2.077 0.567,4.124 3.62,9.001 7.365,14.196 10.986,14.196 1.321,0 1.667,-0.851 2.581,-0.851 0.849,0 1.573,0.756 1.573,1.857 0,0.756 -0.566,1.48 -2.141,1.48" /></g><g
           transform="translate(79.2972,119.0717)"
           id="g74"><path
             id="path76"
             style="fill:#f5f0e8;fill-opacity:1;fill-rule:nonzero;stroke:none"
             d="M 0,0 C 0.038,0.094 0.074,0.19 0.099,0.252 L 0.544,1.438 C 0.323,0.863 0.137,0.397 0,0" /></g><g
           transform="translate(79.9042,120.6732)"
           id="g78"><path
             id="path80"
             style="fill:#f5f0e8;fill-opacity:1;fill-rule:nonzero;stroke:none"
             d="M 0,0 -0.002,-0.003 -0.041,-0.11 c 0.036,0.092 0.071,0.186 0.109,0.283 l 0.301,0.812 z" /></g><g
           transform="translate(123.8613,126.5231)"
           id="g82"><path
             id="path84"
             style="fill:#f5f0e8;fill-opacity:1;fill-rule:nonzero;stroke:none"
             d="m 0,0 c -1.352,-3.714 -4.092,-7.9 -6.074,-7.9 -0.756,0 -1.165,0.628 -1.165,2.329 0,4.469 3.494,11.898 6.578,11.898 1.039,0 1.416,-0.912 1.416,-2.486 C 0.755,2.802 0.505,1.542 0,0 M 6.327,6.894 C 6.516,7.24 6.295,7.428 6.013,7.428 5.32,7.428 5.015,7.151 3.914,7.151 3.346,7.151 2.942,6.074 2.721,5.538 L 2.309,4.516 C 2.058,3.856 1.763,3.904 1.669,4.596 1.354,6.17 0.63,7.24 -0.975,7.24 c -4.407,0 -9.443,-7.743 -9.443,-13.347 0,-2.423 0.976,-4.186 2.896,-4.186 2.581,0 4.878,4.219 6.011,6.389 0.159,0.315 0.347,0.474 0.568,0.474 0.188,0 0.282,-0.19 0.156,-0.568 l -0.409,-1.133 c -0.598,-1.573 -0.945,-2.391 -0.945,-3.147 0,-0.915 0.319,-1.685 1.536,-1.877 0.003,0 0.008,-0.001 0.013,-0.001 0.153,-0.025 0.318,-0.038 0.501,-0.043 h 0.013 c 0.113,0 0.226,0.008 0.34,0.023 0.022,0.002 0.043,0.005 0.063,0.01 0.005,0.001 0.009,0.002 0.014,0.002 0.699,0.117 1.216,0.71 1.241,1.418 0.033,0.937 -0.085,2.477 0.705,5.5 0.024,0.093 0.052,0.186 0.083,0.277 l 0.528,1.584 C 3.841,1.605 5.1,4.25 6.327,6.894" /></g><g
           transform="translate(82.3742,131.9124)"
           id="g86"><path
             id="path88"
             style="fill:#f5f0e8;fill-opacity:1;fill-rule:nonzero;stroke:none"
             d="M 0,0 C -0.022,-0.112 -0.034,-0.245 -0.042,-0.399 -0.03,-0.239 -0.014,-0.1 0.016,0.016 0.042,0.199 0.104,0.369 0.197,0.522 0.096,0.365 0.028,0.191 0,0" /></g><g
           transform="translate(70.4384,117.9247)"
           id="g90"><path
             id="path92"
             style="fill:#f5f0e8;fill-opacity:1;fill-rule:nonzero;stroke:none"
             d="m 0,0 c 0,-1.168 -0.883,-2.022 -3.094,-3.662 -0.885,-0.705 -1.837,-1.217 -2.779,-1.494 -0.534,-0.16 -1.066,-0.243 -1.58,-0.243 -0.628,0 -1.192,0.091 -1.738,0.225 -1.59,0.394 -3.014,1.165 -5.365,1.165 h -0.664 c -0.789,0 -0.916,0.221 0.379,0.504 1.389,0.411 2.401,0.664 3.6,1.168 1.301,0.55 2.7,1.399 4.066,2.524 1.686,1.391 3.322,3.2 4.653,5.376 0.446,0.725 0.858,1.492 1.227,2.299 1.863,4.042 4.011,5.369 4.863,5.337 0.694,-0.032 0.821,-0.98 0.126,-2.685 C 3.285,9.41 0,3.032 0,0 m -13.805,-1.526 c -2.293,0.366 -3.12,2.771 -3.12,5.788 0,7.579 5.116,19.009 9.916,19.009 2.779,0 3.757,-2.59 3.757,-5.872 0,-1.107 -0.109,-2.291 -0.31,-3.512 C -3.72,12.908 -3.939,11.908 -4.208,10.91 -4.911,8.304 -5.957,5.716 -7.196,3.576 c -1.75,-3.028 -3.884,-5.154 -5.971,-5.154 -0.224,0 -0.437,0.016 -0.638,0.052 m 28.102,16.885 c -0.054,0.006 -0.109,0.012 -0.163,0.014 -0.058,0.002 -0.118,0.004 -0.178,0.004 -0.065,0 -0.129,-0.002 -0.193,-0.006 -0.038,-0.002 -0.077,-0.006 -0.115,-0.01 -0.072,-0.01 -0.144,-0.02 -0.214,-0.034 -0.037,-0.008 -0.071,-0.016 -0.107,-0.024 -0.357,-0.083 -0.676,-0.241 -0.915,-0.464 0,-0.002 0,-0.002 -0.002,0 -0.022,-0.024 -0.047,-0.046 -0.069,-0.068 -0.022,-0.022 -0.044,-0.046 -0.066,-0.071 -0.02,-0.022 -0.038,-0.042 -0.054,-0.064 -0.016,-0.022 -0.032,-0.042 -0.046,-0.062 -0.016,-0.02 -0.03,-0.042 -0.042,-0.064 -0.093,-0.153 -0.155,-0.324 -0.181,-0.506 -0.03,-0.117 -0.046,-0.255 -0.058,-0.416 -0.004,-0.054 -0.006,-0.11 -0.01,-0.171 C 11.857,12.699 11.839,11.574 11.241,9.852 8.872,3.064 5.525,0.285 4.168,0.285 3.505,0.253 3.315,0.568 3.315,1.231 c 0,1.548 1.833,5.18 3.443,9.062 0.568,1.422 0.915,2.526 0.948,3.347 0.006,0.195 -0.002,0.384 -0.033,0.564 C 7.579,14.805 7.258,15.293 6.487,15.451 6.358,15.479 6.218,15.495 6.063,15.503 5.429,15.53 4.758,15.307 4.108,14.949 H 4.106 C 2.427,14.026 0.871,12.203 0.347,11.43 0.094,11.083 0,10.988 -0.094,10.988 c -0.095,0 -0.127,0.159 -0.065,0.6 0.02,0.091 0.039,0.181 0.055,0.272 0.184,0.909 0.307,1.911 0.345,3.021 0.008,0.235 0.012,0.474 0.012,0.717 0,4.642 -2.052,8.368 -6.82,8.368 -7.2,0 -13.861,-9.219 -13.861,-17.873 0,-4.672 2.999,-8.398 6.503,-8.398 0.568,0 0.758,-0.032 0.758,-0.158 0,-0.095 -0.317,-0.221 -0.853,-0.378 -2.084,-0.664 -5.242,-1.138 -7.42,-1.138 -0.663,0 -1.072,-0.504 -1.231,-1.042 -0.189,-0.568 0.062,-1.199 0.757,-1.199 1.233,0 3.379,1.516 5.304,1.516 2.922,0 4.518,-2.67 7.057,-3.307 0.344,-0.088 0.705,-0.136 1.091,-0.136 0.781,0 1.463,0.261 2.116,0.69 1.196,0.785 2.296,2.141 3.726,3.51 1.61,1.548 2.146,1.704 4.893,1.704 2.558,0 4.041,2.149 6.758,6.57 0.315,0.536 0.536,0.694 0.662,0.694 0.113,0 0.193,-0.08 0.173,-0.295 C 9.852,4.664 9.83,4.594 9.798,4.515 L 9.617,4.029 9.505,3.732 9.203,2.921 C 9.165,2.825 9.131,2.73 9.095,2.638 L 9.073,2.586 8.627,1.399 C 8.603,1.337 8.567,1.241 8.529,1.146 8.525,1.134 8.519,1.12 8.515,1.108 8.509,1.092 8.503,1.078 8.497,1.062 V 1.056 C 8.458,0.96 8.428,0.877 8.424,0.861 c -0.459,-1.503 -0.329,-2.3 0.219,-2.65 0.032,-0.022 0.066,-0.04 0.101,-0.058 0.01,-0.006 0.022,-0.01 0.032,-0.016 0.174,-0.082 0.377,-0.129 0.608,-0.149 0.08,-0.004 0.165,-0.008 0.249,-0.008 0.293,0 0.592,0.048 0.867,0.139 0.012,0.004 0.024,0.008 0.036,0.014 0.484,0.166 0.773,0.488 0.918,0.911 0.012,0.032 0.022,0.067 0.032,0.099 0.098,0.307 0.181,0.698 0.257,1.146 0.008,0.05 0.018,0.103 0.026,0.155 0.002,0.01 0.004,0.02 0.006,0.032 0.237,1.439 0.55,2.863 0.946,4.266 0.988,2.897 1.753,5.136 2.562,7.352 0.779,2.307 0.162,3.136 -0.986,3.265" /></g><g
           transform="translate(75.6064,157.354)"
           id="g94"><path
             id="path96"
             style="fill:#f5f0e8;fill-opacity:1;fill-rule:nonzero;stroke:none"
             d="m 0,0 c -1.102,-3.305 -3.839,-8.373 -6.201,-8.373 -0.756,0 -1.165,0.724 -1.165,2.203 0,4.471 3.494,12.056 6.579,12.056 C 0.252,5.886 0.63,4.753 0.63,3.401 0.599,2.015 0.315,1.008 0,0 m 9.31,-0.95 c 1.039,3.429 2.896,6.861 4.879,6.861 0.818,0 1.101,-0.755 1.101,-1.826 0,-2.393 -1.51,-4.753 -5.068,-5.917 C 9.531,-2.02 9.153,-1.644 9.31,-0.95 m 7.145,-1.953 c -1.636,-3.682 -3.652,-5.886 -5.634,-5.886 -1.29,0 -2.36,0.851 -2.36,2.896 0,0.629 0.062,1.384 0.219,2.205 0.127,0.66 0.818,1.351 1.479,1.509 4.722,1.26 7.524,3.871 7.524,6.202 0,1.669 -1.322,2.645 -3.179,2.645 -3.538,0 -7.039,-4.324 -8.491,-8.751 C 5.85,-2.388 5.711,-2.659 5.665,-2.769 3.904,-6.548 2.771,-8.184 1.92,-8.184 c -0.099,0 -0.185,0.02 -0.256,0.058 -0.247,0.129 -0.336,0.477 -0.274,1.028 v 0.003 c 0.014,0.119 0.035,0.246 0.063,0.383 v 0.003 c 0.069,0.345 0.183,0.745 0.341,1.2 l 2.392,7.681 c 0.61,1.971 1.713,4.879 2.764,7.573 0.846,2.169 1.656,4.2 2.147,5.491 0.157,0.409 0.157,0.566 -0.189,0.566 -0.409,0 -1.071,-0.284 -1.826,-0.535 C 6.831,15.162 6.5,15.069 6.122,14.985 5.866,14.929 5.66,14.743 5.578,14.494 L 4.793,12.122 C 4.747,11.954 4.69,11.774 4.628,11.584 L 4.006,9.745 2.203,4.407 C 1.982,3.745 1.669,3.778 1.511,4.438 1.07,5.918 0.378,6.8 -1.102,6.8 c -4.407,0 -9.443,-7.743 -9.443,-13.348 0,-2.454 0.976,-4.217 2.833,-4.217 2.99,0 5.352,4.722 6.358,6.894 0.19,0.315 0.378,0.503 0.567,0.503 0.188,0 0.315,-0.221 0.188,-0.598 L -1.133,-5.54 c -0.242,-0.686 -0.439,-1.227 -0.584,-1.682 l -0.01,-0.028 c -0.188,-0.597 -0.287,-1.042 -0.287,-1.468 0,-0.825 0.258,-1.531 1.198,-1.803 h 0.003 c 0.061,-0.018 0.125,-0.034 0.193,-0.047 0.002,-0.002 0.002,-0.002 0.003,0 0.058,-0.014 0.119,-0.024 0.182,-0.032 0.151,-0.023 0.316,-0.036 0.498,-0.039 2.193,-0.027 4.006,3.143 5.352,6.005 -0.068,-0.494 -0.103,-0.978 -0.103,-1.447 0,-3.115 1.636,-4.847 4.123,-4.847 3.715,0 6.202,4.941 7.524,7.9 0.188,0.442 -0.283,0.66 -0.504,0.125" /></g><g
           transform="translate(20.2401,147.4024)"
           id="g98"><path
             id="path100"
             style="fill:#f5f0e8;fill-opacity:1;fill-rule:nonzero;stroke:none"
             d="m 0,0 c -1.039,0 -1.669,0.157 -1.669,1.037 0,0.315 0.063,0.724 0.221,1.292 l 6.105,19.83 c 0.536,1.764 1.261,2.014 2.74,2.014 3.683,0 5.917,-2.863 5.917,-7.522 C 13.314,9.757 8.309,0 0,0 M 7.775,24.678 H 3.021 C 2.768,24.678 2.464,24.686 2.13,24.7 1.98,24.706 1.844,24.61 1.801,24.467 L 0.853,21.365 C 0.843,21.325 0.83,21.285 0.818,21.246 L -4.785,2.926 C -4.822,2.8 -4.864,2.678 -4.905,2.563 l -0.002,-0.005 -0.81,-2.652 c -0.067,-0.217 0.102,-0.435 0.328,-0.426 0.261,0.009 0.497,0.015 0.699,0.015 h 4.909 c 12.182,0 16.841,10.892 16.841,17.093 0,5.603 -4.029,8.09 -9.285,8.09" /></g><g
           transform="translate(41.7048,147.3694)"
           id="g102"><path
             id="path104"
             style="fill:#f5f0e8;fill-opacity:1;fill-rule:nonzero;stroke:none"
             d="m 0,0 c -1.354,0 -1.857,1.323 -1.857,3.211 0,5.037 3.147,12.559 5.855,12.559 1.321,0 1.888,-1.352 1.888,-3.274 C 5.886,7.461 2.706,0 0,0 m 4.248,16.684 c -4.657,0 -9.191,-6.201 -9.191,-12.182 0,-3.336 1.888,-5.414 4.659,-5.414 4.691,0 9.223,6.17 9.223,12.119 0,3.305 -1.888,5.477 -4.691,5.477" /></g><g
           transform="translate(65.6346,161.7229)"
           id="g106"><path
             id="path108"
             style="fill:#f5f0e8;fill-opacity:1;fill-rule:nonzero;stroke:none"
             d="m 0,0 c 0,-1.672 -1.219,-4.539 -2.824,-8.452 -0.006,-0.019 -0.014,-0.035 -0.021,-0.053 -0.17,-0.422 -0.338,-0.861 -0.5,-1.316 -0.473,-1.364 -0.537,-2.354 -0.541,-3.061 -10e-4,-0.467 0.023,-0.812 -0.026,-1.063 -0.107,-0.724 -0.876,-1.218 -1.704,-1.349 -0.145,-0.024 -0.292,-0.036 -0.437,-0.036 -1.354,0 -2.122,0.81 -1.271,3.297 l 10e-4,0.007 c 0.096,0.321 0.22,0.684 0.378,1.113 l 0.008,0.023 c 0.089,0.241 0.187,0.501 0.295,0.787 0.503,1.242 1.005,2.444 1.46,3.552 1.082,2.634 1.908,4.745 1.908,5.608 0,0.692 -0.221,1.007 -0.661,1.007 -1.448,0 -4.816,-3.273 -7.145,-9.821 -0.788,-2.266 -0.442,-3.495 -0.567,-4.123 -0.125,-0.851 -1.164,-1.386 -2.141,-1.386 -1.354,0 -2.172,0.787 -1.321,3.274 l 3.21,9.254 c 0.56,1.772 0.607,2.322 0.671,3.096 0.12,1.44 0.631,1.972 1.474,1.972 1.424,0 1.692,-1.111 1.692,-1.939 0,-0.632 -0.374,-1.555 -1.004,-3.129 l -0.881,-2.235 c -0.158,-0.44 -0.064,-0.598 0.094,-0.598 0.157,0 0.347,0.127 0.535,0.473 2.645,4.847 4.721,7.397 6.988,7.397 C -0.787,2.299 0,1.354 0,0" /></g><g
           id="g110"><g
             id="g112" /><g
             id="g148"><g
               style="opacity:0.19999701"
               id="g146"
               clip-path="url(#clipPath116)"><g
                 id="g120"
                 transform="translate(141.258,171.0726)"><path
                   id="path118"
                   style="fill:#f5f0e8;fill-opacity:1;fill-rule:nonzero;stroke:none"
                   d="m 0,0 c -1.227,0 -2.045,-0.755 -2.045,-1.951 0,-1.166 0.818,-1.953 2.045,-1.953 1.197,0 1.984,0.787 1.984,1.953 C 1.984,-0.755 1.197,0 0,0" /></g><g
                 id="g124"
                 transform="translate(141.7479,161.7147)"><path
                   id="path122"
                   style="fill:#f5f0e8;fill-opacity:1;fill-rule:nonzero;stroke:none"
                   d="m 0,0 c -0.087,-0.684 -0.341,-1.473 -0.818,-2.792 l -1.563,-4.499 c -0.59,-1.696 -1.057,-3.435 -1.357,-5.205 -0.002,-0.012 -0.004,-0.024 -0.006,-0.035 -0.008,-0.05 -0.016,-0.101 -0.025,-0.15 -10e-4,-0.012 -0.003,-0.022 -0.005,-0.032 -0.085,-0.516 -0.173,-0.966 -0.285,-1.311 -0.01,-0.033 -0.02,-0.067 -0.031,-0.1 -0.147,-0.427 -0.437,-0.751 -0.927,-0.919 -0.012,-0.005 -0.023,-0.01 -0.036,-0.013 -0.157,-0.053 -0.32,-0.091 -0.487,-0.112 -0.129,-0.018 -0.257,-0.028 -0.386,-0.028 -0.086,0 -0.171,0.003 -0.251,0.008 -0.232,0.02 -0.438,0.068 -0.613,0.15 -0.012,0.005 -0.023,0.01 -0.033,0.017 -0.635,0.319 -0.811,1.124 -0.323,2.729 0.005,0.015 0.034,0.099 0.072,0.196 0.002,0.002 0.002,0.005 0.002,0.007 0.007,0.013 0.012,0.028 0.016,0.041 0.002,0.002 0.002,0.002 0.002,0.003 0.127,0.523 0.332,1.157 0.633,2.013 l 0.706,1.987 1.806,5.311 c 0.556,1.527 0.475,3.394 0.536,3.644 0.116,0.779 0.645,1.338 1.544,1.417 0.082,0.01 0.167,0.013 0.252,0.013 C -0.435,2.34 0.355,1.776 0,0" /></g><g
                 id="g128"
                 transform="translate(145.472,156.4354)"><path
                   id="path126"
                   style="fill:#f5f0e8;fill-opacity:1;fill-rule:nonzero;stroke:none"
                   d="M 0,0 C 1.039,3.43 2.896,6.863 4.879,6.863 5.697,6.863 5.98,6.107 5.98,5.037 5.98,2.644 4.47,0.284 0.912,-0.881 0.221,-1.07 -0.157,-0.693 0,0 m 26.655,12.213 c -5.886,0 -9.348,-6.925 -12.559,-14.604 -0.156,-0.347 -0.63,-0.378 -0.44,0.125 l 1.826,4.784 c 0.598,1.574 0.976,2.361 1.007,3.149 0.032,1.006 -0.409,1.888 -2.078,1.92 C 11.736,7.649 9.406,2.959 8.022,-0.157 8.019,-0.165 7.151,-1.938 7.145,-1.951 5.227,-6.031 3.493,-7.837 1.511,-7.837 c -1.29,0 -2.36,0.849 -2.36,2.896 0,0.628 0.062,1.384 0.219,2.203 0.127,0.66 0.818,1.353 1.479,1.511 4.722,1.258 7.524,3.871 7.524,6.201 0,1.668 -1.322,2.644 -3.18,2.644 -4.627,0 -9.191,-7.397 -9.191,-12.749 0,-3.115 1.636,-4.847 4.123,-4.847 3.568,0 6.004,4.559 7.361,7.54 0.012,0.02 0.02,0.042 0.03,0.06 0.044,0.102 0.089,0.203 0.133,0.3 l 0.002,0.002 c 0.005,0.013 0.01,0.026 0.015,0.038 0.01,0.028 0.884,1.815 0.897,1.845 1.763,3.778 3.142,5.355 3.991,5.355 0.693,-0.031 0.724,-0.943 0.094,-2.706 l -3.021,-9.16 c -0.85,-2.487 -0.032,-3.274 1.322,-3.274 0.975,0 2.046,0.534 2.14,1.385 0.127,0.85 -0.157,2.077 0.567,4.124 3.62,9.001 7.365,14.196 10.986,14.196 1.321,0 1.667,-0.851 2.581,-0.851 0.849,0 1.573,0.756 1.573,1.857 0,0.756 -0.566,1.48 -2.141,1.48" /></g><g
                 id="g132"
                 transform="translate(128.8887,149.3303)"><path
                   id="path130"
                   style="fill:#f5f0e8;fill-opacity:1;fill-rule:nonzero;stroke:none"
                   d="M 0,0 C 0.038,0.094 0.074,0.19 0.099,0.252 L 0.544,1.438 C 0.323,0.863 0.137,0.397 0,0" /></g><g
                 id="g136"
                 transform="translate(129.4956,150.9318)"><path
                   id="path134"
                   style="fill:#f5f0e8;fill-opacity:1;fill-rule:nonzero;stroke:none"
                   d="M 0,0 -0.002,-0.003 -0.041,-0.11 c 0.036,0.092 0.071,0.186 0.109,0.283 l 0.301,0.812 z" /></g><g
                 id="g140"
                 transform="translate(131.9657,162.171)"><path
                   id="path138"
                   style="fill:#f5f0e8;fill-opacity:1;fill-rule:nonzero;stroke:none"
                   d="M 0,0 C -0.022,-0.112 -0.034,-0.245 -0.042,-0.399 -0.03,-0.239 -0.014,-0.1 0.016,0.016 0.042,0.199 0.104,0.369 0.197,0.522 0.096,0.365 0.028,0.191 0,0" /></g><g
                 id="g144"
                 transform="translate(120.0299,148.1833)"><path
                   id="path142"
                   style="fill:#f5f0e8;fill-opacity:1;fill-rule:nonzero;stroke:none"
                   d="m 0,0 c 0,-1.168 -0.883,-2.022 -3.094,-3.662 -0.885,-0.705 -1.837,-1.217 -2.779,-1.494 -0.534,-0.16 -1.066,-0.243 -1.58,-0.243 -0.628,0 -1.192,0.091 -1.738,0.225 -1.59,0.394 -3.014,1.165 -5.365,1.165 h -0.664 c -0.789,0 -0.916,0.221 0.379,0.504 1.389,0.411 2.401,0.664 3.6,1.168 1.301,0.55 2.7,1.399 4.066,2.524 1.686,1.391 3.322,3.2 4.653,5.376 0.446,0.725 0.858,1.492 1.227,2.299 1.863,4.042 4.011,5.369 4.863,5.337 0.694,-0.032 0.821,-0.98 0.126,-2.685 C 3.285,9.41 0,3.032 0,0 m -13.805,-1.526 c -2.293,0.366 -3.12,2.771 -3.12,5.788 0,7.579 5.116,19.009 9.916,19.009 2.779,0 3.757,-2.59 3.757,-5.872 0,-1.107 -0.109,-2.291 -0.31,-3.512 C -3.72,12.908 -3.939,11.908 -4.208,10.91 -4.911,8.304 -5.957,5.716 -7.196,3.576 c -1.75,-3.028 -3.885,-5.154 -5.971,-5.154 -0.224,0 -0.437,0.016 -0.638,0.052 m 28.102,16.885 c -0.054,0.006 -0.109,0.012 -0.163,0.014 -0.058,0.002 -0.118,0.004 -0.178,0.004 -0.065,0 -0.129,-0.002 -0.193,-0.006 -0.038,-0.002 -0.077,-0.006 -0.115,-0.01 -0.072,-0.01 -0.144,-0.02 -0.214,-0.034 -0.037,-0.008 -0.071,-0.016 -0.107,-0.024 -0.357,-0.083 -0.676,-0.241 -0.915,-0.464 0,-0.002 0,-0.002 -0.002,0 -0.022,-0.024 -0.047,-0.046 -0.069,-0.068 -0.022,-0.022 -0.044,-0.046 -0.066,-0.071 -0.02,-0.022 -0.038,-0.042 -0.054,-0.064 -0.016,-0.022 -0.032,-0.042 -0.046,-0.062 -0.016,-0.02 -0.03,-0.042 -0.042,-0.064 -0.093,-0.153 -0.155,-0.324 -0.181,-0.506 -0.03,-0.117 -0.046,-0.255 -0.058,-0.416 -0.004,-0.054 -0.006,-0.11 -0.01,-0.171 C 11.857,12.699 11.839,11.574 11.241,9.852 8.872,3.064 5.525,0.285 4.168,0.285 3.505,0.253 3.315,0.568 3.315,1.231 c 0,1.548 1.833,5.18 3.443,9.063 0.568,1.421 0.915,2.525 0.948,3.346 0.006,0.195 -0.002,0.384 -0.033,0.564 C 7.579,14.805 7.258,15.293 6.487,15.451 6.358,15.479 6.218,15.495 6.063,15.503 5.429,15.53 4.758,15.307 4.108,14.949 H 4.106 C 2.427,14.026 0.871,12.203 0.347,11.43 0.094,11.083 0,10.988 -0.094,10.988 c -0.095,0 -0.127,0.159 -0.065,0.6 0.02,0.091 0.039,0.181 0.055,0.272 0.184,0.909 0.307,1.911 0.345,3.021 0.008,0.235 0.012,0.474 0.012,0.717 0,4.642 -2.052,8.368 -6.82,8.368 -7.2,0 -13.861,-9.219 -13.861,-17.873 0,-4.672 2.999,-8.398 6.503,-8.398 0.568,0 0.758,-0.032 0.758,-0.158 0,-0.095 -0.317,-0.221 -0.853,-0.378 -2.084,-0.664 -5.242,-1.138 -7.42,-1.138 -0.663,0 -1.072,-0.504 -1.231,-1.042 -0.189,-0.568 0.062,-1.199 0.757,-1.199 1.233,0 3.379,1.516 5.304,1.516 2.922,0 4.518,-2.67 7.057,-3.307 0.344,-0.088 0.705,-0.136 1.091,-0.136 0.781,0 1.463,0.261 2.116,0.69 1.196,0.785 2.296,2.141 3.726,3.51 1.61,1.548 2.146,1.704 4.893,1.704 2.558,0 4.041,2.149 6.758,6.57 0.315,0.536 0.536,0.694 0.662,0.694 0.113,0 0.193,-0.08 0.173,-0.295 C 9.852,4.664 9.83,4.594 9.798,4.515 L 9.617,4.029 9.505,3.732 9.203,2.921 C 9.165,2.825 9.131,2.73 9.095,2.638 L 9.073,2.586 8.627,1.399 C 8.603,1.337 8.567,1.241 8.529,1.146 8.525,1.134 8.519,1.12 8.515,1.108 8.509,1.092 8.503,1.078 8.497,1.062 V 1.056 C 8.458,0.96 8.428,0.877 8.424,0.861 c -0.459,-1.503 -0.329,-2.3 0.219,-2.65 0.032,-0.022 0.066,-0.04 0.101,-0.058 0.01,-0.006 0.022,-0.01 0.032,-0.016 0.174,-0.082 0.377,-0.129 0.608,-0.149 0.08,-0.004 0.165,-0.008 0.249,-0.008 0.293,0 0.592,0.048 0.867,0.139 0.012,0.004 0.024,0.008 0.036,0.014 0.484,0.166 0.773,0.488 0.918,0.911 0.012,0.032 0.022,0.067 0.032,0.099 0.098,0.307 0.181,0.698 0.257,1.146 0.008,0.05 0.018,0.103 0.026,0.155 0.002,0.01 0.004,0.02 0.006,0.032 0.237,1.439 0.55,2.863 0.946,4.266 0.988,2.897 1.753,5.136 2.562,7.352 0.779,2.307 0.162,3.136 -0.986,3.265" /></g></g></g></g><g
           transform="translate(52.6484,97.1859)"
           id="g150"><path
             id="path152"
             style="fill:#f5f0e8;fill-opacity:1;fill-rule:nonzero;stroke:none"
             d="M 0,0 C 0.979,3.237 2.731,6.476 4.604,6.476 5.376,6.476 5.643,5.763 5.643,4.753 5.643,2.495 4.218,0.268 0.861,-0.831 0.207,-1.01 -0.149,-0.654 0,0 M 6.742,-1.841 C 5.198,-5.317 3.296,-7.396 1.426,-7.396 c -1.219,0 -2.229,0.802 -2.229,2.733 0,0.593 0.059,1.306 0.209,2.079 0.118,0.623 0.771,1.277 1.396,1.426 C 5.257,0.03 7.9,2.495 7.9,4.694 c 0,1.573 -1.247,2.495 -2.999,2.495 -4.367,0 -8.674,-6.98 -8.674,-12.031 0,-2.94 1.544,-4.574 3.891,-4.574 3.505,0 5.852,4.663 7.099,7.455 0.179,0.417 -0.266,0.624 -0.475,0.12" /></g><g
           transform="translate(30.1689,97.603)"
           id="g154"><path
             id="path156"
             style="fill:#f5f0e8;fill-opacity:1;fill-rule:nonzero;stroke:none"
             d="m 0,0 c -1.267,-3.505 -3.83,-7.393 -5.685,-7.393 -0.709,0 -1.09,0.589 -1.09,2.179 0,4.182 3.269,11.105 6.156,11.105 0.972,0 1.326,-0.855 1.326,-2.327 C 0.707,2.621 0.47,1.443 0,0 m 17.761,6.745 c -0.943,0 -1.768,-0.501 -1.885,-1.296 -0.147,-0.588 0.06,-1.739 -0.678,-3.858 -2.179,-6.333 -5.331,-8.926 -6.569,-8.926 -0.618,0 -0.824,0.266 -0.824,0.884 0,1.443 1.709,4.831 3.211,8.454 0.529,1.296 0.884,2.416 0.884,3.122 0,1.267 -0.914,2.003 -3.329,2.003 C 6.037,7.128 3.592,6.039 2.297,4.152 1.973,3.594 1.648,3.653 1.559,4.3 1.265,5.743 0.588,6.745 -0.914,6.745 c -4.124,0 -8.837,-7.246 -8.837,-12.49 0,-2.238 0.914,-3.887 2.71,-3.887 2.416,0 4.566,3.917 5.626,5.95 0.148,0.323 0.324,0.442 0.529,0.442 0.178,0 0.296,-0.148 0.148,-0.531 l -2.877,-7.651 -0.002,-0.003 -0.478,-1.27 c -0.056,-0.143 -0.183,-0.475 -0.193,-0.508 -0.457,-1.501 -0.292,-2.256 0.302,-2.555 0.01,-0.006 0.02,-0.011 0.031,-0.016 0.22,-0.104 0.492,-0.148 0.81,-0.148 0.275,0 0.557,0.046 0.817,0.131 0.012,0.003 0.023,0.008 0.034,0.013 0.458,0.157 0.73,0.46 0.867,0.86 0.011,0.031 0.02,0.063 0.029,0.094 0.312,0.965 0.369,2.104 0.827,3.976 0.106,0.434 0.49,1.67 0.492,1.675 l 1.976,5.796 1.431,3.819 c 1.796,5.066 2.768,6.037 4.448,6.037 0.912,0 1.266,-0.47 1.266,-1.383 0,-0.766 -0.413,-1.767 -0.884,-2.888 -0.382,-1 -3.447,-6.98 -3.447,-9.808 0,-1.207 0.767,-2.091 2.121,-2.091 2.386,0 3.772,2.003 6.304,6.127 0.325,0.5 0.501,0.647 0.619,0.647 0.148,0 0.265,-0.147 0.089,-0.588 l -0.17,-0.457 -0.106,-0.281 -0.284,-0.765 C 13.248,-5.1 13.215,-5.189 13.181,-5.276 l -0.02,-0.05 -0.421,-1.119 c -0.023,-0.059 -0.057,-0.149 -0.093,-0.238 -0.005,-0.012 -0.009,-0.025 -0.014,-0.037 -0.005,-0.014 -0.011,-0.028 -0.016,-0.042 0,-0.002 0,-0.005 -0.001,-0.007 -0.036,-0.091 -0.064,-0.169 -0.069,-0.183 -0.457,-1.502 -0.292,-2.257 0.302,-2.556 0.01,-0.006 0.021,-0.011 0.031,-0.015 0.164,-0.078 0.357,-0.122 0.575,-0.14 0.074,-0.005 0.154,-0.008 0.235,-0.008 0.275,0 0.557,0.045 0.817,0.131 0.012,0.003 0.023,0.007 0.034,0.012 0.458,0.157 0.73,0.461 0.867,0.861 0.011,0.031 0.02,0.062 0.03,0.093 0.104,0.324 0.186,0.744 0.267,1.228 0.002,0.01 0.003,0.019 0.005,0.029 0.338,2.055 0.844,4.079 1.526,6.046 0.581,1.675 1.306,3.741 1.763,4.953 0.793,2.357 0,3.063 -1.238,3.063" /></g><g
           id="g158"><g
             id="g160" /><g
             id="g176"><g
               style="opacity:0.19999701"
               id="g174"
               clip-path="url(#clipPath164)"><g
                 id="g168"
                 transform="translate(-17.8906,97.1859)"><path
                   id="path166"
                   style="fill:#f5f0e8;fill-opacity:1;fill-rule:nonzero;stroke:none"
                   d="M 0,0 C 0.98,3.237 2.733,6.476 4.604,6.476 5.376,6.476 5.643,5.763 5.643,4.753 5.643,2.495 4.218,0.268 0.861,-0.831 0.209,-1.01 -0.148,-0.654 0,0 m 25.154,11.525 c -5.555,0 -8.822,-6.535 -11.852,-13.782 -0.148,-0.327 -0.594,-0.356 -0.415,0.119 l 1.723,4.515 c 0.565,1.484 0.921,2.227 0.95,2.971 C 15.59,6.297 15.175,7.13 13.599,7.159 11.075,7.218 8.876,2.792 7.57,-0.148 7.567,-0.156 6.748,-1.829 6.742,-1.841 4.932,-5.692 3.296,-7.396 1.426,-7.396 c -1.217,0 -2.228,0.802 -2.228,2.733 0,0.593 0.06,1.306 0.207,2.079 0.12,0.623 0.772,1.277 1.397,1.426 4.455,1.188 7.1,3.653 7.1,5.852 0,1.573 -1.249,2.495 -3.001,2.495 -4.367,0 -8.674,-6.98 -8.674,-12.031 0,-2.94 1.544,-4.574 3.891,-4.574 3.367,0 5.665,4.302 6.946,7.116 0.011,0.018 0.019,0.039 0.028,0.056 0.042,0.096 0.084,0.191 0.126,0.283 l 0.002,0.002 c 0.005,0.012 0.009,0.024 0.014,0.035 0.009,0.027 0.834,1.714 0.847,1.742 1.663,3.566 2.965,5.053 3.766,5.053 0.654,-0.029 0.683,-0.89 0.089,-2.554 L 9.084,-6.327 c -0.801,-2.347 -0.029,-3.089 1.249,-3.089 0.919,0 1.93,0.504 2.018,1.307 0.12,0.802 -0.148,1.96 0.536,3.891 3.416,8.495 6.95,13.397 10.367,13.397 1.246,0 1.573,-0.803 2.435,-0.803 0.802,0 1.485,0.713 1.485,1.753 0,0.713 -0.534,1.396 -2.02,1.396" /></g><g
                 id="g172"
                 transform="translate(8.5141,97.5127)"><path
                   id="path170"
                   style="fill:#f5f0e8;fill-opacity:1;fill-rule:nonzero;stroke:none"
                   d="m 0,0 c -1.276,-3.505 -3.861,-7.455 -5.732,-7.455 -0.713,0 -1.099,0.593 -1.099,2.198 0,4.217 3.297,11.227 6.207,11.227 0.98,0 1.337,-0.86 1.337,-2.345 C 0.713,2.644 0.476,1.455 0,0 M 5.97,6.506 C 6.149,6.832 5.941,7.01 5.674,7.01 5.021,7.01 4.733,6.748 3.693,6.748 3.158,6.748 2.777,5.732 2.568,5.226 L 2.179,4.261 C 1.942,3.639 1.664,3.684 1.575,4.338 1.278,5.822 0.594,6.832 -0.92,6.832 c -4.158,0 -8.912,-7.307 -8.912,-12.595 0,-2.286 0.922,-3.95 2.733,-3.95 2.436,0 4.604,3.981 5.673,6.029 0.15,0.297 0.327,0.447 0.536,0.447 0.177,0 0.266,-0.179 0.148,-0.536 l -0.386,-1.069 c -0.565,-1.485 -0.892,-2.257 -0.892,-2.969 0,-0.864 0.3,-1.591 1.449,-1.772 0.003,0 0.008,-10e-4 0.012,-10e-4 0.145,-0.023 0.301,-0.036 0.473,-0.041 h 0.013 c 0.106,0 0.213,0.008 0.32,0.022 0.021,0.002 0.041,0.005 0.06,0.01 0.004,0 0.008,10e-4 0.013,0.002 0.659,0.11 1.148,0.67 1.171,1.338 0.032,0.884 -0.081,2.337 0.665,5.19 0.023,0.087 0.05,0.175 0.078,0.261 l 0.499,1.495 C 3.625,1.514 4.812,4.011 5.97,6.506" /></g></g></g></g><g
           id="g178"><g
             id="g180" /><g
             id="g244"><g
               style="opacity:0.19999701"
               id="g242"
               clip-path="url(#clipPath184)"><g
                 id="g188"
                 transform="translate(73.042,99.2644)"><path
                   id="path186"
                   style="fill:#f5f0e8;fill-opacity:1;fill-rule:nonzero;stroke:none"
                   d="m 0,0 c -0.009,-0.023 -0.018,-0.047 -0.025,-0.071 l -1.266,-4.18 h -0.001 l 1.266,4.18 C -0.018,-0.047 -0.01,-0.023 0,0" /></g><g
                 id="g192"
                 transform="translate(74.1487,102.9387)"><path
                   id="path190"
                   style="fill:#f5f0e8;fill-opacity:1;fill-rule:nonzero;stroke:none"
                   d="m 0,0 -0.358,-1.16 c -0.009,-0.03 -0.016,-0.058 -0.023,-0.087 0.006,0.029 0.013,0.057 0.022,0.087 z" /></g><g
                 id="g196"
                 transform="translate(76.3015,109.8845)"><path
                   id="path194"
                   style="fill:#f5f0e8;fill-opacity:1;fill-rule:nonzero;stroke:none"
                   d="M 0,0 C -0.017,-0.049 -0.032,-0.099 -0.047,-0.149 L -1.209,-3.903 H -1.21 l 1.162,3.754 c 0.015,0.05 0.03,0.1 0.048,0.149" /></g><g
                 id="g200"
                 transform="translate(71.75,95.0133)"><path
                   id="path198"
                   style="fill:#f5f0e8;fill-opacity:1;fill-rule:nonzero;stroke:none"
                   d="m 0,0 c -0.067,-0.185 -0.684,-2.169 -0.884,-2.879 -0.199,-0.707 -0.358,-1.471 -0.257,-2.207 0.06,-0.44 0.236,-0.871 0.589,-1.157 0.319,-0.258 0.776,-0.391 1.18,-0.436 0.42,-0.046 0.446,-0.039 0.861,-0.009 1.466,0.106 2.18,1.198 2.457,1.551 0.017,0.022 0.034,0.044 0.052,0.067 0.284,0.368 0.546,0.754 0.852,1.104 1.159,1.327 1.872,2.159 3.31,2.136 2.524,-0.042 2.495,-4.634 4.574,-4.634 0.097,0 0.186,0.008 0.273,0.02 0.004,0 0.009,0.001 0.014,0.003 0.535,0.091 0.903,0.44 1.12,0.972 0.01,0.024 0.021,0.048 0.03,0.073 0.013,0.033 0.024,0.065 0.035,0.098 0.017,0.052 0.034,0.105 0.049,0.16 0.051,0.183 0.087,0.381 0.109,0.593 0.004,0.03 0.007,0.061 0.01,0.091 0.004,0.043 0.007,0.088 0.01,0.132 10e-4,0.027 0.003,0.053 0.004,0.081 0.007,0.108 0.009,0.218 0.009,0.332 0,1.129 -0.534,2.109 -1.277,3.149 l -0.802,1.247 c -1.098,1.634 -1.752,2.762 -1.752,4.247 -0.001,0.047 0,0.094 10e-4,0.14 0.002,0.05 0.005,0.1 0.008,0.148 0.003,0.047 0.006,0.092 0.011,0.138 0.066,0.683 0.281,1.307 0.612,1.853 0.403,0.675 0.983,1.231 1.679,1.639 0.847,0.498 1.864,0.776 2.946,0.776 0.81,0 1.481,-0.181 2.017,-0.466 C 18.815,8.448 19.343,7.59 19.433,6.859 19.44,6.8 19.444,6.743 19.446,6.687 19.447,6.67 19.447,6.653 19.447,6.636 c 0,-0.026 0,-0.051 -0.002,-0.076 -0.037,-0.906 -0.558,-1.321 -1.216,-1.321 -0.624,0 -1.158,0.476 -1.306,1.308 -0.149,1.276 -0.743,2.138 -1.902,2.138 -0.69,0 -1.237,-0.267 -1.582,-0.783 C 13.233,7.613 13.093,7.243 13.032,6.797 13.011,6.636 12.999,6.462 12.999,6.279 c 0,-0.147 0.012,-0.294 0.036,-0.445 0.031,-0.215 0.086,-0.432 0.164,-0.651 0.223,-0.664 0.634,-1.351 1.169,-2.111 l 0.74,-1.218 c 0.793,-1.177 1.319,-2.09 1.575,-3.005 0.099,-0.356 0.157,-0.712 0.172,-1.084 0.004,-0.072 0.006,-0.144 0.006,-0.217 0,-0.085 -0.002,-0.169 -0.007,-0.252 C 16.853,-2.743 16.851,-2.782 16.847,-2.821 16.845,-2.84 16.844,-2.86 16.842,-2.879 16.841,-2.898 16.84,-2.918 16.837,-2.937 16.833,-2.974 16.829,-3.009 16.825,-3.045 16.764,-3.532 16.634,-3.993 16.447,-4.419 16.434,-4.448 16.42,-4.478 16.406,-4.507 16.394,-4.536 16.38,-4.564 16.366,-4.591 16.355,-4.613 16.344,-4.635 16.333,-4.657 16.315,-4.692 16.297,-4.726 16.278,-4.76 c -0.782,-1.463 -2.261,-2.428 -3.827,-2.445 -0.001,-0.001 -0.003,-0.001 -0.004,0 -0.012,-0.001 -0.026,-0.001 -0.039,-0.001 -3.086,0 -3.685,3.107 -4.94,3.851 -0.17,0.102 -0.353,0.159 -0.555,0.159 -0.694,0 -1.215,-0.56 -1.624,-1.055 C 5.019,-4.577 4.769,-4.919 4.509,-5.253 4.247,-5.589 3.981,-5.941 3.671,-6.237 3.317,-6.575 2.893,-6.839 2.432,-7.006 1.996,-7.164 1.529,-7.234 1.066,-7.213 0.843,-7.203 0.621,-7.166 0.4,-7.142 c -0.252,0.028 -0.504,0.053 -0.757,0.074 -0.719,0.059 -1.44,0.085 -2.161,0.085 h -1.84 c -0.038,0 -0.076,0 -0.116,-0.001 -0.04,0.001 -0.081,0 -0.123,-0.002 -0.034,0 -0.068,0 -0.104,-0.002 H -4.733 C -4.815,-6.99 -4.898,-6.994 -4.984,-6.997 h -0.038 c -0.208,0.003 -0.359,0.204 -0.299,0.407 l 0.802,2.618 4.032,13.184 0.538,1.756 0.85,2.781 0.866,2.819 c 0.042,0.136 0.171,0.226 0.313,0.223 0.117,-0.004 0.229,-0.008 0.337,-0.011 0.11,-0.002 0.212,-0.006 0.311,-0.006 0.064,-0.002 0.129,-0.002 0.187,-0.002 h 8.211 c 0.259,0 0.496,0.006 0.715,0.017 0.049,0.002 0.096,0.004 0.142,0.005 0.159,0.009 0.307,0.016 0.443,0.029 0.476,0.042 0.508,-0.428 0.341,-0.668 -0.155,-0.224 -0.481,-0.184 -1.446,-0.039 -0.447,0.067 -0.766,0.111 -1.232,0.141 -0.269,0.047 -0.564,0.07 -0.894,0.07 H 6.524 c -0.04,0 -0.079,-0.001 -0.117,-0.003 C 6.38,16.324 6.354,16.322 6.329,16.32 6.306,16.319 6.284,16.317 6.263,16.313 6.242,16.312 6.221,16.31 6.199,16.307 6.178,16.304 6.158,16.301 6.137,16.298 6.13,16.297 6.125,16.296 6.119,16.295 6.09,16.29 6.06,16.285 6.032,16.278 6.006,16.274 5.981,16.268 5.957,16.262 5.944,16.259 5.931,16.255 5.919,16.252 5.897,16.246 5.875,16.241 5.854,16.233 5.825,16.225 5.798,16.216 5.77,16.206 5.707,16.183 5.647,16.159 5.59,16.131 5.568,16.121 5.545,16.11 5.524,16.098 5.515,16.093 5.505,16.088 5.496,16.083 5.475,16.072 5.455,16.06 5.434,16.047 5.433,16.047 5.433,16.046 5.431,16.044 5.426,16.042 5.422,16.04 5.418,16.037 5.396,16.024 5.374,16.01 5.354,15.995 5.328,15.978 5.304,15.96 5.279,15.941 5.256,15.924 5.233,15.905 5.21,15.887 5.209,15.886 5.207,15.884 5.205,15.882 5.184,15.864 5.163,15.846 5.143,15.827 5.119,15.804 5.096,15.781 5.072,15.758 5.056,15.74 5.039,15.723 5.023,15.705 5.008,15.688 4.992,15.669 4.976,15.651 4.961,15.632 4.946,15.614 4.931,15.595 4.917,15.576 4.903,15.557 4.888,15.537 4.878,15.523 4.869,15.509 4.859,15.495 4.846,15.476 4.825,15.444 4.812,15.425 4.797,15.4 4.784,15.377 4.769,15.352 4.756,15.331 4.744,15.31 4.733,15.288 4.709,15.244 4.687,15.2 4.666,15.155 4.644,15.109 4.624,15.063 4.605,15.016 4.586,14.968 4.568,14.92 4.552,14.871 4.534,14.822 4.518,14.773 4.504,14.722 L 3.342,10.968 c 0,0 -0.942,-3.041 -0.943,-3.043 L 2.039,6.765 C 2.031,6.736 2.024,6.707 2.018,6.679 2.014,6.657 2.01,6.636 2.006,6.615 2.005,6.613 2.005,6.611 2.005,6.609 2.003,6.597 2.002,6.586 2.001,6.575 1.998,6.561 1.996,6.548 1.996,6.534 1.995,6.532 1.995,6.531 1.995,6.529 1.994,6.517 1.993,6.506 1.992,6.494 1.99,6.442 1.99,6.39 1.994,6.34 1.996,6.324 1.997,6.307 2,6.291 2.002,6.278 2.003,6.265 2.006,6.253 2.013,6.211 2.023,6.172 2.035,6.134 2.039,6.119 2.045,6.104 2.05,6.091 2.062,6.056 2.077,6.023 2.095,5.992 2.104,5.974 2.114,5.957 2.125,5.939 2.137,5.921 2.149,5.904 2.163,5.886 2.176,5.869 2.19,5.853 2.204,5.837 2.212,5.829 2.219,5.821 2.227,5.814 2.232,5.809 2.237,5.804 2.242,5.798 2.245,5.796 2.248,5.794 2.25,5.792 2.266,5.777 2.283,5.764 2.3,5.751 2.302,5.751 2.303,5.749 2.305,5.748 2.319,5.738 2.332,5.727 2.347,5.719 2.351,5.716 2.355,5.715 2.359,5.712 2.373,5.704 2.387,5.695 2.402,5.689 2.408,5.685 2.415,5.682 2.422,5.679 2.437,5.671 2.452,5.665 2.469,5.659 2.472,5.658 2.474,5.657 2.477,5.657 2.494,5.65 2.511,5.644 2.53,5.638 2.55,5.633 2.57,5.628 2.59,5.624 2.595,5.623 2.601,5.622 2.606,5.622 2.623,5.619 2.64,5.616 2.658,5.614 2.678,5.612 2.7,5.61 2.728,5.61 2.735,5.607 2.744,5.607 2.753,5.607 2.767,5.605 2.784,5.605 2.8,5.605 h 2.553 c 0.139,0.002 0.269,0.002 0.393,0.002 0.308,0 0.574,-0.003 0.804,-0.003 0.095,0 0.183,0.001 0.266,0.003 h 1.501 c 0.092,0 0.171,-0.06 0.196,-0.142 C 8.487,5.387 8.462,5.31 8.438,5.228 8.402,5.204 8.36,5.188 8.315,5.188 H 5.369 C 5.325,5.19 5.28,5.19 5.233,5.19 H 2.732 C 2.714,5.19 2.696,5.189 2.678,5.188 2.65,5.187 2.623,5.185 2.595,5.182 2.575,5.18 2.554,5.177 2.533,5.174 2.503,5.17 2.473,5.164 2.443,5.158 2.404,5.15 2.366,5.14 2.328,5.129 2.31,5.125 2.292,5.119 2.274,5.114 2.272,5.113 2.269,5.112 2.266,5.111 2.25,5.105 2.234,5.1 2.218,5.094 2.204,5.09 2.191,5.084 2.177,5.078 2.15,5.068 2.124,5.057 2.096,5.045 2.07,5.033 2.043,5.02 2.017,5.007 1.991,4.994 1.966,4.98 1.941,4.965 1.938,4.964 1.936,4.964 1.934,4.962 1.911,4.949 1.889,4.935 1.867,4.92 1.846,4.907 1.827,4.893 1.806,4.88 1.756,4.844 1.707,4.806 1.662,4.765 1.64,4.746 1.62,4.727 1.6,4.707 1.586,4.693 1.572,4.68 1.558,4.665 1.518,4.622 1.48,4.576 1.447,4.53 1.437,4.517 1.427,4.503 1.416,4.488 1.404,4.468 1.391,4.448 1.38,4.428 1.37,4.414 1.362,4.4 1.355,4.386 1.345,4.369 1.337,4.353 1.329,4.336 1.318,4.313 1.308,4.289 1.298,4.266 1.296,4.261 1.293,4.257 1.292,4.251 1.282,4.228 1.274,4.204 1.266,4.18" /></g><g
                 id="g204"
                 transform="translate(74.5487,100.2035)"><path
                   id="path202"
                   style="fill:#f5f0e8;fill-opacity:1;fill-rule:nonzero;stroke:none"
                   d="m 0,0 c -0.217,0 -0.434,-0.049 -0.633,-0.135 0.004,0.008 0.007,0.015 0.011,0.023 v 0.001 c 0.014,0.005 0.028,0.011 0.041,0.015 0.016,0.006 0.033,0.011 0.048,0.017 0.003,0.001 0.006,0.002 0.009,0.003 0.017,0.005 0.036,0.011 0.053,0.015 0.038,0.011 0.077,0.02 0.115,0.029 0.031,0.006 0.06,0.012 0.091,0.015 0.02,0.004 0.041,0.007 0.061,0.009 0.028,0.002 0.056,0.004 0.083,0.006 C -0.096,-0.001 -0.072,0 -0.047,0 Z" /></g><g
                 id="g208"
                 transform="translate(80.2651,100.3555)"><path
                   id="path206"
                   style="fill:#f5f0e8;fill-opacity:1;fill-rule:nonzero;stroke:none"
                   d="m 0,0 c -0.002,-0.002 -0.002,-0.004 -0.002,-0.006 -0.009,-0.032 -0.027,-0.062 -0.05,-0.085 -0.001,0 -0.001,-0.002 -0.001,-0.002 -0.008,-0.007 -0.015,-0.013 -0.023,-0.019 h -0.001 c 0.024,0.08 0.048,0.157 0.075,0.235 C 0,0.119 0.002,0.115 0.002,0.111 0.004,0.108 0.004,0.104 0.006,0.1 0.011,0.07 0.009,0.034 0,0" /></g><g
                 id="g212"
                 transform="translate(73.7893,101.7784)"><path
                   id="path210"
                   style="fill:#f5f0e8;fill-opacity:1;fill-rule:nonzero;stroke:none"
                   d="M 0,0 0.359,1.16 0.001,0 C -0.007,-0.029 -0.015,-0.058 -0.021,-0.087 -0.016,-0.058 -0.008,-0.029 0,0" /></g><g
                 id="g216"
                 transform="translate(74.2262,100.6873)"><path
                   id="path214"
                   style="fill:#f5f0e8;fill-opacity:1;fill-rule:nonzero;stroke:none"
                   d="M 0,0 C 0.074,-0.035 0.158,-0.056 0.246,-0.065 0.224,-0.064 0.202,-0.062 0.182,-0.06 0.164,-0.058 0.147,-0.055 0.13,-0.053 0.124,-0.052 0.119,-0.051 0.114,-0.05 c -0.02,0.004 -0.04,0.009 -0.061,0.014 0,0 0,10e-4 -0.001,10e-4 -0.017,0.005 -0.034,0.011 -0.051,0.017 -0.003,10e-4 -0.006,0.002 -0.008,0.003 h -0.001 c 0.002,0.005 0.004,0.01 0.007,0.015 z" /></g><g
                 id="g220"
                 transform="translate(76.3015,109.8845)"><path
                   id="path218"
                   style="fill:#f5f0e8;fill-opacity:1;fill-rule:nonzero;stroke:none"
                   d="M 0,0 C -0.017,-0.049 -0.032,-0.099 -0.047,-0.149 L -1.209,-3.903 H -1.21 l 1.162,3.754 c 0.015,0.05 0.03,0.1 0.048,0.149" /></g><g
                 id="g224"
                 transform="translate(83.5901,111.8022)"><path
                   id="path222"
                   style="fill:#f5f0e8;fill-opacity:1;fill-rule:nonzero;stroke:none"
                   d="m 0,0 c -0.218,-0.011 -0.455,-0.017 -0.714,-0.017 h -1.054 c 0.749,0 1.311,0 1.768,0.017" /></g><g
                 id="g228"
                 transform="translate(112.6421,112.6077)"><path
                   id="path226"
                   style="fill:#f5f0e8;fill-opacity:1;fill-rule:nonzero;stroke:none"
                   d="M 0,0 C -0.86,0 -1.544,-0.623 -1.989,-1.277 L -4.604,-5.136 C -5.019,-5.76 -5.108,-5.94 -4.96,-5.94 c 0.117,0 0.267,0.091 0.474,0.239 l 4.338,3.712 C 1.04,-1.069 1.249,0 0,0" /></g><g
                 id="g232"
                 transform="translate(118.8943,104.3927)"><path
                   id="path230"
                   style="fill:#f5f0e8;fill-opacity:1;fill-rule:nonzero;stroke:none"
                   d="m 0,0 c -2.851,0 -5.258,-1.933 -5.258,-4.723 0,-1.486 0.654,-2.613 1.753,-4.25 l 0.771,-1.245 c 0.773,-1.042 1.307,-2.021 1.307,-3.148 0,-1.516 -0.506,-2.556 -1.87,-2.556 -1.218,0 -2.317,1.099 -2.555,2.821 -0.179,0.862 -0.563,1.309 -1.308,1.309 -0.801,0 -1.246,-0.712 -1.246,-1.398 0,-1.902 2.108,-3.473 4.456,-3.473 2.851,0 4.988,2.078 4.988,4.78 0,1.425 -0.593,2.584 -1.752,4.308 l -0.741,1.219 c -0.834,1.187 -1.368,2.197 -1.368,3.205 0,1.546 0.801,2.378 2.022,2.378 1.127,0 1.752,-0.862 1.9,-2.139 0.15,-0.832 0.682,-1.305 1.307,-1.305 0.682,0 1.218,0.445 1.218,1.424 C 3.624,-1.635 2.435,0 0,0" /></g><g
                 id="g236"
                 transform="translate(103.4646,97.2216)"><path
                   id="path234"
                   style="fill:#f5f0e8;fill-opacity:1;fill-rule:nonzero;stroke:none"
                   d="m 0,0 c 0.979,3.238 2.732,6.478 4.602,6.478 0.773,0 1.04,-0.715 1.04,-1.724 C 5.642,2.651 4.411,0.58 1.535,-0.584 1.319,-0.673 1.095,-0.756 0.86,-0.83 0.673,-0.881 0.51,-0.889 0.375,-0.858 0.044,-0.781 -0.106,-0.466 0,0 M 6.741,-1.84 C 5.197,-5.316 3.295,-7.397 1.425,-7.397 c -1.219,0 -2.228,0.802 -2.228,2.732 0,0.593 0.06,1.31 0.208,2.083 0.108,0.574 0.675,1.176 1.254,1.379 0.048,0.019 0.095,0.036 0.142,0.043 0.036,0.012 0.071,0.019 0.105,0.031 0.464,0.136 0.924,0.293 1.379,0.464 0.781,0.292 1.777,0.726 2.578,1.211 0.012,0.003 0.021,0.011 0.033,0.019 0.178,0.115 0.352,0.229 0.515,0.346 0.021,0.014 0.044,0.031 0.064,0.05 1.567,1.14 2.425,2.478 2.425,3.732 0,1.576 -1.248,2.495 -3.001,2.495 -3.548,0 -7.053,-4.606 -8.247,-9.045 -0.233,-0.123 -0.453,-0.261 -0.655,-0.418 -0.048,-0.033 -0.093,-0.071 -0.139,-0.108 -0.534,-0.444 -0.881,-0.938 -1.205,-1.476 -10e-4,0 -0.005,-0.004 -0.005,-0.01 -0.201,-0.365 -0.4,-0.706 -0.595,-1.021 -0.508,-0.805 -0.999,-1.421 -1.467,-1.838 -0.469,-0.413 -0.918,-0.629 -1.343,-0.629 -0.623,0 -0.89,0.328 -0.89,0.893 0,0.477 0.295,1.396 0.504,1.959 l 3.387,9.835 c 0.176,0.532 0.563,0.714 0.951,0.714 h 2.821 c 0.328,0 0.504,0.204 0.504,0.415 0,0.148 -0.117,0.326 -0.356,0.326 -0.801,0 -1.752,-0.237 -2.732,-0.237 -0.625,0 -0.654,0.413 -0.475,0.921 l 1.157,3.236 c 0.03,0.151 -0.059,0.269 -0.237,0.269 -0.119,0 -0.297,-0.091 -0.386,-0.269 -1.366,-2.672 -3.119,-4.038 -6.298,-4.038 -0.239,0 -0.415,-0.15 -0.415,-0.297 0,-0.093 0.089,-0.211 0.298,-0.211 h 1.87 c 0.536,0 0.564,-0.325 0.447,-0.712 l -3.475,-9.922 c -0.388,-1.097 -0.654,-2.02 -0.654,-2.791 0,-1.218 0.592,-2.08 2.018,-2.08 1.887,0 3.818,1.891 5.256,4.195 v 10e-4 c 0.189,0.319 0.371,0.643 0.563,0.963 0.001,0.004 0.003,0.007 0.007,0.011 0.32,0.533 0.673,1.039 1.135,1.457 0.081,0.078 0.165,0.146 0.252,0.209 -0.174,-0.8 -0.269,-1.586 -0.269,-2.333 0,-2.94 1.544,-4.571 3.891,-4.571 3.506,0 5.853,4.662 7.101,7.453 0.177,0.419 -0.269,0.623 -0.477,0.121" /></g><g
                 id="g240"
                 transform="translate(88.5748,91.9684)"><path
                   id="path238"
                   style="fill:#f5f0e8;fill-opacity:1;fill-rule:nonzero;stroke:none"
                   d="M 0,0 C -0.057,-0.487 -0.186,-0.948 -0.378,-1.374 -0.191,-0.948 -0.061,-0.487 0,0" /></g></g></g></g><g
           id="g246"><g
             id="g248" /><g
             id="g264"><g
               style="opacity:0.19999701"
               id="g262"
               clip-path="url(#clipPath252)"><g
                 id="g256"
                 transform="translate(43.4827,69.1205)"><path
                   id="path254"
                   style="fill:#f5f0e8;fill-opacity:1;fill-rule:nonzero;stroke:none"
                   d="M 0,0 C 0.979,3.237 2.731,6.476 4.604,6.476 5.376,6.476 5.643,5.763 5.643,4.753 5.643,2.495 4.218,0.268 0.861,-0.831 0.207,-1.01 -0.149,-0.654 0,0 M 6.742,-1.841 C 5.198,-5.317 3.296,-7.396 1.426,-7.396 c -1.219,0 -2.229,0.802 -2.229,2.733 0,0.593 0.059,1.306 0.209,2.079 0.118,0.623 0.771,1.277 1.396,1.426 C 5.257,0.03 7.9,2.495 7.9,4.694 c 0,1.573 -1.247,2.495 -2.999,2.495 -4.367,0 -8.674,-6.98 -8.674,-12.031 0,-2.94 1.544,-4.574 3.891,-4.574 3.505,0 5.852,4.663 7.099,7.455 0.179,0.417 -0.266,0.624 -0.475,0.12" /></g><g
                 id="g260"
                 transform="translate(21.0032,69.5376)"><path
                   id="path258"
                   style="fill:#f5f0e8;fill-opacity:1;fill-rule:nonzero;stroke:none"
                   d="m 0,0 c -1.267,-3.505 -3.83,-7.393 -5.685,-7.393 -0.709,0 -1.09,0.589 -1.09,2.179 0,4.182 3.269,11.105 6.156,11.105 0.972,0 1.326,-0.855 1.326,-2.327 C 0.707,2.621 0.47,1.443 0,0 m 17.761,6.745 c -0.943,0 -1.768,-0.501 -1.885,-1.296 -0.147,-0.588 0.06,-1.739 -0.678,-3.858 -2.179,-6.333 -5.331,-8.926 -6.569,-8.926 -0.618,0 -0.824,0.266 -0.824,0.884 0,1.443 1.709,4.831 3.211,8.454 0.529,1.296 0.884,2.416 0.884,3.122 0,1.267 -0.914,2.003 -3.329,2.003 C 6.037,7.128 3.592,6.039 2.297,4.152 1.973,3.594 1.648,3.653 1.559,4.3 1.265,5.743 0.588,6.745 -0.914,6.745 c -4.124,0 -8.837,-7.246 -8.837,-12.49 0,-2.238 0.914,-3.887 2.71,-3.887 2.416,0 4.566,3.917 5.626,5.95 0.148,0.323 0.324,0.442 0.529,0.442 0.178,0 0.296,-0.148 0.148,-0.531 l -2.877,-7.651 -0.002,-0.003 -0.478,-1.27 c -0.056,-0.143 -0.183,-0.475 -0.193,-0.508 -0.457,-1.501 -0.292,-2.256 0.302,-2.555 0.01,-0.006 0.02,-0.011 0.031,-0.016 0.22,-0.104 0.492,-0.148 0.81,-0.148 0.275,0 0.557,0.046 0.817,0.131 0.012,0.003 0.023,0.008 0.034,0.013 0.458,0.157 0.73,0.46 0.867,0.86 0.011,0.031 0.02,0.063 0.029,0.094 0.312,0.965 0.369,2.104 0.827,3.976 0.106,0.434 0.49,1.67 0.492,1.675 l 1.976,5.796 1.431,3.819 c 1.796,5.066 2.768,6.037 4.448,6.037 0.912,0 1.266,-0.47 1.266,-1.383 0,-0.766 -0.413,-1.767 -0.884,-2.888 -0.382,-1 -3.447,-6.98 -3.447,-9.808 0,-1.207 0.767,-2.091 2.121,-2.091 2.386,0 3.772,2.003 6.304,6.127 0.325,0.5 0.501,0.647 0.619,0.647 0.148,0 0.265,-0.147 0.089,-0.588 l -0.17,-0.457 -0.106,-0.281 -0.284,-0.765 C 13.248,-5.1 13.215,-5.189 13.181,-5.276 l -0.02,-0.05 -0.421,-1.119 c -0.023,-0.059 -0.057,-0.149 -0.093,-0.238 -0.005,-0.012 -0.009,-0.025 -0.014,-0.037 -0.005,-0.014 -0.011,-0.028 -0.016,-0.042 0,-0.002 0,-0.005 -0.001,-0.007 -0.036,-0.091 -0.064,-0.169 -0.069,-0.183 -0.457,-1.502 -0.292,-2.257 0.302,-2.556 0.01,-0.006 0.021,-0.011 0.031,-0.015 0.164,-0.078 0.357,-0.122 0.575,-0.14 0.074,-0.005 0.154,-0.008 0.235,-0.008 0.275,0 0.557,0.045 0.817,0.131 0.012,0.003 0.023,0.007 0.034,0.012 0.458,0.157 0.73,0.461 0.867,0.861 0.011,0.031 0.02,0.062 0.03,0.093 0.104,0.324 0.186,0.744 0.267,1.228 0.002,0.01 0.003,0.019 0.005,0.029 0.338,2.055 0.844,4.079 1.526,6.046 0.581,1.675 1.306,3.741 1.763,4.953 0.793,2.357 0,3.063 -1.238,3.063" /></g></g></g></g><g
           id="g266"><g
             id="g268" /><g
             id="g284"><g
               style="opacity:0.19999701"
               id="g282"
               clip-path="url(#clipPath272)"><g
                 id="g276"
                 transform="translate(-27.0562,69.1205)"><path
                   id="path274"
                   style="fill:#f5f0e8;fill-opacity:1;fill-rule:nonzero;stroke:none"
                   d="M 0,0 C 0.98,3.237 2.733,6.476 4.604,6.476 5.376,6.476 5.643,5.763 5.643,4.753 5.643,2.495 4.218,0.268 0.861,-0.831 0.209,-1.01 -0.148,-0.654 0,0 m 25.154,11.525 c -5.555,0 -8.822,-6.535 -11.852,-13.782 -0.148,-0.327 -0.594,-0.356 -0.415,0.119 l 1.723,4.515 c 0.565,1.484 0.921,2.227 0.95,2.971 C 15.59,6.297 15.175,7.13 13.599,7.159 11.075,7.218 8.876,2.792 7.57,-0.148 7.567,-0.156 6.748,-1.829 6.742,-1.841 4.932,-5.692 3.296,-7.396 1.426,-7.396 c -1.217,0 -2.228,0.802 -2.228,2.733 0,0.593 0.06,1.306 0.207,2.079 0.12,0.623 0.772,1.277 1.396,1.426 4.456,1.188 7.101,3.653 7.101,5.852 0,1.573 -1.249,2.495 -3.001,2.495 -4.367,0 -8.674,-6.98 -8.674,-12.031 0,-2.94 1.544,-4.574 3.891,-4.574 3.367,0 5.665,4.302 6.946,7.116 0.011,0.018 0.019,0.039 0.028,0.056 0.042,0.096 0.084,0.191 0.126,0.283 l 0.002,0.002 c 0.005,0.012 0.009,0.024 0.014,0.035 0.009,0.027 0.834,1.714 0.847,1.742 1.663,3.566 2.965,5.053 3.766,5.053 0.654,-0.029 0.683,-0.89 0.089,-2.554 L 9.084,-6.327 c -0.801,-2.347 -0.029,-3.089 1.249,-3.089 0.919,0 1.93,0.504 2.018,1.307 0.12,0.802 -0.148,1.96 0.536,3.891 3.416,8.495 6.95,13.397 10.367,13.397 1.246,0 1.573,-0.803 2.435,-0.803 0.802,0 1.485,0.713 1.485,1.753 0,0.713 -0.534,1.396 -2.02,1.396" /></g><g
                 id="g280"
                 transform="translate(-0.6516,69.4474)"><path
                   id="path278"
                   style="fill:#f5f0e8;fill-opacity:1;fill-rule:nonzero;stroke:none"
                   d="m 0,0 c -1.276,-3.505 -3.861,-7.455 -5.732,-7.455 -0.713,0 -1.099,0.593 -1.099,2.198 0,4.217 3.296,11.227 6.207,11.227 0.98,0 1.337,-0.86 1.337,-2.345 C 0.713,2.644 0.476,1.455 0,0 M 5.97,6.506 C 6.149,6.832 5.941,7.01 5.674,7.01 5.021,7.01 4.733,6.748 3.693,6.748 3.158,6.748 2.777,5.732 2.568,5.226 L 2.179,4.261 C 1.942,3.639 1.664,3.684 1.575,4.338 1.278,5.822 0.594,6.832 -0.92,6.832 c -4.158,0 -8.912,-7.307 -8.912,-12.595 0,-2.286 0.922,-3.95 2.733,-3.95 2.436,0 4.604,3.981 5.673,6.029 0.15,0.297 0.327,0.447 0.536,0.447 0.177,0 0.266,-0.179 0.148,-0.536 l -0.386,-1.069 c -0.565,-1.485 -0.892,-2.257 -0.892,-2.969 0,-0.864 0.3,-1.591 1.449,-1.772 0.003,0 0.008,-10e-4 0.012,-10e-4 0.145,-0.023 0.301,-0.036 0.473,-0.041 h 0.013 c 0.106,0 0.213,0.008 0.32,0.022 0.021,0.002 0.041,0.005 0.06,0.01 0.004,0 0.008,10e-4 0.013,0.002 0.659,0.11 1.148,0.67 1.171,1.338 0.032,0.884 -0.081,2.337 0.665,5.19 0.023,0.087 0.05,0.175 0.078,0.261 l 0.499,1.495 C 3.625,1.514 4.812,4.011 5.97,6.506" /></g></g></g></g><g
           transform="translate(63.8763,71.1991)"
           id="g286"><path
             id="path288"
             style="fill:#f5f0e8;fill-opacity:1;fill-rule:nonzero;stroke:none"
             d="m 0,0 c -0.009,-0.023 -0.018,-0.047 -0.025,-0.071 l -1.266,-4.18 h -0.001 l 1.266,4.18 C -0.018,-0.047 -0.01,-0.023 0,0" /></g><g
           transform="translate(64.9831,74.8733)"
           id="g290"><path
             id="path292"
             style="fill:#f5f0e8;fill-opacity:1;fill-rule:nonzero;stroke:none"
             d="m 0,0 -0.358,-1.16 c -0.009,-0.03 -0.016,-0.058 -0.023,-0.087 0.006,0.029 0.013,0.057 0.022,0.087 z" /></g><g
           transform="translate(67.1359,81.8191)"
           id="g294"><path
             id="path296"
             style="fill:#f5f0e8;fill-opacity:1;fill-rule:nonzero;stroke:none"
             d="M 0,0 C -0.017,-0.049 -0.032,-0.099 -0.047,-0.149 L -1.209,-3.903 H -1.21 l 1.162,3.754 c 0.015,0.05 0.03,0.1 0.048,0.149" /></g><g
           transform="translate(62.5843,66.9479)"
           id="g298"><path
             id="path300"
             style="fill:#f5f0e8;fill-opacity:1;fill-rule:nonzero;stroke:none"
             d="m 0,0 c -0.067,-0.185 -0.684,-2.169 -0.884,-2.879 -0.199,-0.707 -0.358,-1.471 -0.257,-2.207 0.06,-0.44 0.236,-0.871 0.589,-1.157 0.319,-0.258 0.776,-0.391 1.18,-0.436 0.42,-0.046 0.446,-0.039 0.861,-0.009 1.466,0.106 2.18,1.198 2.457,1.551 0.017,0.022 0.034,0.044 0.052,0.067 0.284,0.368 0.546,0.754 0.852,1.104 1.159,1.327 1.872,2.159 3.31,2.136 2.524,-0.042 2.495,-4.634 4.574,-4.634 0.097,0 0.186,0.008 0.273,0.02 0.004,0 0.009,0.001 0.014,0.003 0.535,0.091 0.903,0.44 1.12,0.972 0.01,0.024 0.021,0.048 0.03,0.073 0.013,0.033 0.024,0.065 0.035,0.098 0.017,0.052 0.034,0.105 0.049,0.16 0.051,0.183 0.087,0.381 0.109,0.593 0.004,0.03 0.007,0.061 0.01,0.091 0.004,0.043 0.007,0.088 0.01,0.132 0.002,0.027 0.003,0.053 0.004,0.081 0.007,0.108 0.009,0.218 0.009,0.332 0,1.129 -0.534,2.109 -1.277,3.149 l -0.802,1.247 c -1.098,1.634 -1.752,2.762 -1.752,4.247 -0.001,0.047 0,0.094 10e-4,0.14 0.002,0.05 0.005,0.1 0.008,0.148 0.003,0.047 0.006,0.092 0.011,0.138 0.066,0.683 0.281,1.307 0.612,1.853 0.404,0.675 0.983,1.231 1.679,1.639 0.847,0.498 1.864,0.776 2.946,0.776 0.81,0 1.481,-0.181 2.017,-0.466 C 18.815,8.448 19.343,7.59 19.433,6.859 19.44,6.8 19.444,6.743 19.446,6.687 19.447,6.67 19.447,6.653 19.447,6.636 c 0,-0.026 0,-0.051 -0.002,-0.076 -0.037,-0.906 -0.558,-1.321 -1.216,-1.321 -0.624,0 -1.158,0.476 -1.306,1.308 -0.149,1.276 -0.743,2.138 -1.902,2.138 -0.69,0 -1.237,-0.267 -1.582,-0.783 C 13.233,7.613 13.093,7.243 13.032,6.797 13.011,6.636 12.999,6.462 12.999,6.279 c 0,-0.147 0.012,-0.294 0.036,-0.445 0.031,-0.215 0.086,-0.432 0.164,-0.651 0.223,-0.664 0.634,-1.351 1.169,-2.111 l 0.74,-1.218 c 0.793,-1.177 1.319,-2.09 1.575,-3.005 0.099,-0.356 0.157,-0.712 0.172,-1.084 0.004,-0.072 0.006,-0.144 0.006,-0.217 0,-0.085 -0.002,-0.169 -0.007,-0.252 C 16.853,-2.743 16.851,-2.782 16.847,-2.821 16.845,-2.84 16.844,-2.86 16.842,-2.879 16.841,-2.898 16.84,-2.918 16.837,-2.937 16.833,-2.974 16.829,-3.009 16.825,-3.045 16.764,-3.532 16.634,-3.993 16.447,-4.419 16.434,-4.448 16.42,-4.478 16.406,-4.507 16.394,-4.536 16.38,-4.564 16.366,-4.591 16.355,-4.613 16.344,-4.635 16.333,-4.657 16.315,-4.692 16.297,-4.726 16.278,-4.76 c -0.782,-1.463 -2.261,-2.428 -3.827,-2.445 -0.001,-0.001 -0.003,-0.001 -0.004,0 -0.012,-0.001 -0.026,-0.001 -0.039,-0.001 -3.086,0 -3.685,3.107 -4.94,3.851 -0.17,0.102 -0.353,0.159 -0.555,0.159 -0.694,0 -1.215,-0.56 -1.624,-1.055 C 5.019,-4.577 4.769,-4.919 4.509,-5.253 4.247,-5.589 3.981,-5.941 3.671,-6.237 3.317,-6.575 2.893,-6.839 2.432,-7.006 1.996,-7.164 1.529,-7.234 1.066,-7.213 0.843,-7.203 0.621,-7.166 0.4,-7.142 c -0.252,0.028 -0.504,0.053 -0.757,0.074 -0.719,0.059 -1.44,0.085 -2.161,0.085 h -1.84 c -0.038,0 -0.076,0 -0.116,-0.001 -0.04,0.001 -0.081,0 -0.123,-0.002 -0.034,0 -0.068,0 -0.104,-0.002 H -4.733 C -4.815,-6.99 -4.898,-6.994 -4.984,-6.997 h -0.038 c -0.208,0.003 -0.359,0.204 -0.299,0.407 l 0.802,2.618 4.032,13.184 0.538,1.756 0.85,2.781 0.866,2.819 c 0.042,0.136 0.171,0.226 0.313,0.223 0.117,-0.004 0.229,-0.008 0.337,-0.011 0.11,-0.002 0.212,-0.006 0.311,-0.006 0.064,-0.002 0.129,-0.002 0.187,-0.002 h 8.211 c 0.259,0 0.496,0.006 0.715,0.017 0.049,0.002 0.096,0.004 0.142,0.005 0.159,0.009 0.307,0.016 0.443,0.029 0.476,0.042 0.508,-0.428 0.341,-0.668 -0.155,-0.224 -0.481,-0.184 -1.446,-0.039 -0.447,0.067 -0.766,0.111 -1.232,0.141 -0.269,0.047 -0.564,0.07 -0.894,0.07 H 6.524 c -0.04,0 -0.079,-0.001 -0.117,-0.003 C 6.38,16.324 6.354,16.322 6.329,16.32 6.306,16.319 6.284,16.317 6.263,16.313 6.242,16.312 6.221,16.31 6.199,16.307 6.178,16.304 6.158,16.301 6.137,16.298 6.13,16.297 6.125,16.296 6.119,16.295 6.09,16.29 6.06,16.285 6.032,16.278 6.006,16.274 5.981,16.268 5.957,16.262 5.944,16.259 5.931,16.255 5.919,16.252 5.897,16.246 5.875,16.241 5.854,16.233 5.825,16.225 5.798,16.216 5.77,16.206 5.707,16.183 5.647,16.159 5.59,16.131 5.568,16.121 5.545,16.11 5.524,16.098 5.515,16.093 5.505,16.088 5.496,16.083 5.475,16.072 5.455,16.06 5.434,16.047 c 0,0 -0.001,-0.001 -0.003,-0.003 C 5.426,16.042 5.422,16.04 5.418,16.037 5.396,16.024 5.375,16.01 5.354,15.995 5.328,15.978 5.304,15.96 5.279,15.941 5.256,15.924 5.233,15.905 5.21,15.887 5.209,15.886 5.207,15.884 5.205,15.882 5.184,15.864 5.163,15.846 5.143,15.827 5.119,15.804 5.096,15.781 5.072,15.758 5.056,15.74 5.039,15.723 5.023,15.705 5.008,15.688 4.992,15.669 4.976,15.651 4.961,15.632 4.946,15.614 4.931,15.595 4.917,15.576 4.903,15.557 4.888,15.537 4.878,15.523 4.869,15.509 4.859,15.495 4.846,15.476 4.825,15.444 4.812,15.425 4.797,15.4 4.784,15.377 4.769,15.352 4.756,15.331 4.744,15.31 4.733,15.288 4.709,15.244 4.687,15.2 4.666,15.155 4.644,15.109 4.624,15.063 4.605,15.016 4.586,14.968 4.568,14.92 4.552,14.871 4.534,14.822 4.518,14.773 4.504,14.722 L 3.342,10.968 c 0,0 -0.942,-3.041 -0.943,-3.043 L 2.039,6.765 C 2.031,6.736 2.024,6.707 2.018,6.679 2.014,6.657 2.01,6.636 2.006,6.615 2.005,6.613 2.005,6.611 2.005,6.609 2.003,6.597 2.002,6.586 2.001,6.575 1.998,6.561 1.996,6.548 1.996,6.534 1.995,6.532 1.995,6.531 1.995,6.529 1.994,6.517 1.993,6.506 1.992,6.494 1.99,6.442 1.99,6.39 1.994,6.34 1.996,6.324 1.997,6.307 2,6.291 2.002,6.278 2.003,6.265 2.006,6.253 2.013,6.211 2.023,6.172 2.035,6.134 2.039,6.119 2.045,6.104 2.05,6.091 2.062,6.056 2.077,6.023 2.095,5.992 2.104,5.974 2.114,5.957 2.125,5.939 2.137,5.921 2.149,5.904 2.163,5.886 2.176,5.869 2.19,5.853 2.204,5.837 2.212,5.829 2.219,5.822 2.227,5.814 2.232,5.809 2.237,5.804 2.242,5.798 2.245,5.796 2.248,5.794 2.25,5.792 2.266,5.777 2.283,5.764 2.3,5.751 2.302,5.751 2.303,5.749 2.305,5.748 2.319,5.738 2.332,5.727 2.347,5.719 2.351,5.716 2.355,5.715 2.359,5.712 2.373,5.704 2.387,5.695 2.402,5.689 2.408,5.685 2.415,5.682 2.422,5.679 2.437,5.671 2.452,5.665 2.469,5.659 2.472,5.658 2.474,5.657 2.477,5.657 2.494,5.65 2.511,5.644 2.53,5.638 2.55,5.633 2.57,5.628 2.59,5.624 2.595,5.623 2.601,5.622 2.606,5.622 2.623,5.619 2.64,5.616 2.658,5.614 2.678,5.612 2.7,5.61 2.728,5.61 2.735,5.607 2.744,5.607 2.753,5.607 2.767,5.605 2.784,5.605 2.8,5.605 h 2.553 c 0.139,0.002 0.269,0.002 0.393,0.002 0.308,0 0.574,-0.003 0.804,-0.003 0.095,0 0.183,0.001 0.266,0.003 h 1.501 c 0.092,0 0.171,-0.06 0.196,-0.142 C 8.487,5.387 8.462,5.31 8.438,5.228 8.402,5.204 8.36,5.188 8.315,5.188 H 5.369 C 5.325,5.19 5.28,5.19 5.233,5.19 H 2.732 C 2.714,5.19 2.696,5.189 2.678,5.188 2.65,5.187 2.623,5.185 2.595,5.182 2.575,5.18 2.554,5.177 2.533,5.174 2.503,5.17 2.473,5.164 2.443,5.158 2.404,5.15 2.366,5.14 2.328,5.129 2.31,5.125 2.292,5.119 2.274,5.114 2.272,5.113 2.269,5.112 2.266,5.111 2.25,5.105 2.234,5.1 2.218,5.094 2.204,5.09 2.191,5.084 2.177,5.078 2.15,5.068 2.124,5.057 2.096,5.045 2.07,5.033 2.043,5.02 2.017,5.007 1.991,4.994 1.966,4.98 1.941,4.965 1.938,4.964 1.936,4.964 1.934,4.962 1.911,4.949 1.889,4.935 1.867,4.92 1.846,4.907 1.827,4.893 1.806,4.88 1.756,4.844 1.707,4.806 1.662,4.765 1.64,4.746 1.62,4.727 1.6,4.707 1.586,4.693 1.572,4.68 1.558,4.665 1.518,4.622 1.48,4.576 1.447,4.53 1.437,4.517 1.427,4.503 1.416,4.488 1.404,4.468 1.391,4.448 1.38,4.428 1.37,4.414 1.362,4.4 1.355,4.386 1.345,4.369 1.337,4.353 1.329,4.336 1.318,4.313 1.308,4.289 1.298,4.266 1.296,4.261 1.293,4.257 1.292,4.251 1.282,4.228 1.274,4.204 1.266,4.18" /></g><g
           transform="translate(65.3831,72.1381)"
           id="g302"><path
             id="path304"
             style="fill:#f5f0e8;fill-opacity:1;fill-rule:nonzero;stroke:none"
             d="m 0,0 c -0.217,0 -0.434,-0.049 -0.633,-0.135 0.004,0.008 0.007,0.015 0.011,0.023 v 0.001 c 0.014,0.005 0.028,0.011 0.041,0.015 0.016,0.006 0.033,0.011 0.048,0.017 0.003,0.001 0.006,0.002 0.009,0.003 0.017,0.005 0.036,0.011 0.053,0.015 0.038,0.011 0.077,0.02 0.115,0.029 0.031,0.006 0.06,0.012 0.091,0.015 0.02,0.004 0.041,0.007 0.061,0.009 0.028,0.002 0.056,0.004 0.083,0.006 C -0.096,-0.001 -0.072,0 -0.047,0 Z" /></g><g
           transform="translate(71.0995,72.2902)"
           id="g306"><path
             id="path308"
             style="fill:#f5f0e8;fill-opacity:1;fill-rule:nonzero;stroke:none"
             d="m 0,0 c -0.002,-0.002 -0.002,-0.004 -0.002,-0.006 -0.009,-0.032 -0.027,-0.062 -0.05,-0.085 -0.001,0 -0.001,-0.002 -0.001,-0.002 -0.008,-0.007 -0.015,-0.013 -0.023,-0.019 h -0.001 c 0.024,0.08 0.048,0.157 0.075,0.235 C 0,0.119 0.002,0.115 0.002,0.111 0.004,0.108 0.004,0.104 0.006,0.1 0.011,0.07 0.009,0.034 0,0" /></g><g
           transform="translate(64.6237,73.7131)"
           id="g310"><path
             id="path312"
             style="fill:#f5f0e8;fill-opacity:1;fill-rule:nonzero;stroke:none"
             d="M 0,0 0.359,1.16 0.001,0 C -0.007,-0.029 -0.015,-0.058 -0.021,-0.087 -0.016,-0.058 -0.008,-0.029 0,0" /></g><g
           transform="translate(65.0605,72.6219)"
           id="g314"><path
             id="path316"
             style="fill:#f5f0e8;fill-opacity:1;fill-rule:nonzero;stroke:none"
             d="M 0,0 C 0.074,-0.035 0.158,-0.056 0.246,-0.065 0.224,-0.064 0.202,-0.062 0.182,-0.06 0.164,-0.058 0.147,-0.055 0.13,-0.053 0.124,-0.052 0.119,-0.051 0.114,-0.05 c -0.02,0.004 -0.04,0.009 -0.061,0.014 0,0 0,10e-4 -0.001,10e-4 -0.017,0.005 -0.034,0.011 -0.051,0.017 -0.003,10e-4 -0.006,0.002 -0.008,0.003 h -0.001 c 0.002,0.005 0.004,0.01 0.007,0.015 z" /></g><g
           transform="translate(67.1359,81.8191)"
           id="g318"><path
             id="path320"
             style="fill:#f5f0e8;fill-opacity:1;fill-rule:nonzero;stroke:none"
             d="M 0,0 C -0.017,-0.049 -0.032,-0.099 -0.047,-0.149 L -1.209,-3.903 H -1.21 l 1.162,3.754 c 0.015,0.05 0.03,0.1 0.048,0.149" /></g><g
           transform="translate(74.4245,83.7368)"
           id="g322"><path
             id="path324"
             style="fill:#f5f0e8;fill-opacity:1;fill-rule:nonzero;stroke:none"
             d="m 0,0 c -0.218,-0.011 -0.455,-0.017 -0.714,-0.017 h -1.054 c 0.749,0 1.311,0 1.768,0.017" /></g><g
           transform="translate(103.4765,84.5423)"
           id="g326"><path
             id="path328"
             style="fill:#f5f0e8;fill-opacity:1;fill-rule:nonzero;stroke:none"
             d="M 0,0 C -0.86,0 -1.544,-0.623 -1.989,-1.277 L -4.604,-5.136 C -5.019,-5.76 -5.108,-5.94 -4.96,-5.94 c 0.117,0 0.267,0.091 0.474,0.239 l 4.338,3.712 C 1.04,-1.069 1.249,0 0,0" /></g><g
           transform="translate(109.7287,76.3273)"
           id="g330"><path
             id="path332"
             style="fill:#f5f0e8;fill-opacity:1;fill-rule:nonzero;stroke:none"
             d="m 0,0 c -2.851,0 -5.258,-1.933 -5.258,-4.723 0,-1.486 0.654,-2.613 1.753,-4.25 l 0.771,-1.245 c 0.773,-1.042 1.307,-2.021 1.307,-3.148 0,-1.516 -0.506,-2.556 -1.87,-2.556 -1.218,0 -2.317,1.099 -2.555,2.821 -0.179,0.862 -0.563,1.309 -1.308,1.309 -0.801,0 -1.246,-0.712 -1.246,-1.398 0,-1.902 2.108,-3.473 4.456,-3.473 2.851,0 4.988,2.078 4.988,4.78 0,1.425 -0.593,2.584 -1.752,4.308 l -0.741,1.219 c -0.834,1.187 -1.368,2.197 -1.368,3.205 0,1.546 0.801,2.378 2.022,2.378 1.127,0 1.752,-0.862 1.9,-2.139 0.15,-0.832 0.682,-1.305 1.307,-1.305 0.682,0 1.218,0.445 1.218,1.424 C 3.624,-1.635 2.435,0 0,0" /></g><g
           transform="translate(94.299,69.1562)"
           id="g334"><path
             id="path336"
             style="fill:#f5f0e8;fill-opacity:1;fill-rule:nonzero;stroke:none"
             d="m 0,0 c 0.979,3.238 2.732,6.478 4.602,6.478 0.773,0 1.04,-0.715 1.04,-1.724 C 5.642,2.651 4.411,0.58 1.535,-0.584 1.319,-0.673 1.095,-0.756 0.86,-0.83 0.673,-0.881 0.51,-0.889 0.375,-0.858 0.044,-0.781 -0.106,-0.466 0,0 M 6.741,-1.84 C 5.197,-5.316 3.295,-7.397 1.425,-7.397 c -1.219,0 -2.228,0.802 -2.228,2.732 0,0.593 0.06,1.31 0.208,2.083 0.108,0.574 0.675,1.176 1.254,1.379 0.048,0.019 0.095,0.036 0.142,0.043 0.036,0.012 0.071,0.019 0.105,0.031 0.464,0.136 0.924,0.294 1.379,0.464 0.781,0.292 1.777,0.726 2.578,1.211 0.012,0.003 0.021,0.011 0.033,0.019 0.178,0.115 0.352,0.229 0.515,0.346 0.021,0.014 0.044,0.031 0.064,0.05 1.567,1.14 2.425,2.478 2.425,3.732 0,1.576 -1.248,2.495 -3.001,2.495 -3.548,0 -7.053,-4.606 -8.247,-9.045 -0.233,-0.123 -0.453,-0.261 -0.655,-0.418 -0.048,-0.033 -0.093,-0.071 -0.139,-0.108 -0.534,-0.444 -0.881,-0.938 -1.205,-1.476 -10e-4,0 -0.005,-0.004 -0.005,-0.01 -0.201,-0.365 -0.4,-0.706 -0.595,-1.021 -0.508,-0.805 -0.999,-1.421 -1.467,-1.838 -0.469,-0.413 -0.918,-0.629 -1.343,-0.629 -0.623,0 -0.89,0.328 -0.89,0.893 0,0.477 0.295,1.396 0.504,1.959 l 3.387,9.835 c 0.176,0.532 0.563,0.714 0.951,0.714 h 2.821 c 0.328,0 0.504,0.204 0.504,0.415 0,0.148 -0.117,0.326 -0.356,0.326 -0.801,0 -1.752,-0.237 -2.732,-0.237 -0.625,0 -0.654,0.413 -0.475,0.921 l 1.157,3.236 c 0.03,0.151 -0.059,0.269 -0.237,0.269 -0.119,0 -0.297,-0.091 -0.386,-0.269 -1.366,-2.672 -3.119,-4.038 -6.298,-4.038 -0.239,0 -0.415,-0.15 -0.415,-0.297 0,-0.093 0.089,-0.211 0.298,-0.211 h 1.87 c 0.536,0 0.564,-0.325 0.447,-0.712 l -3.475,-9.922 c -0.388,-1.097 -0.654,-2.02 -0.654,-2.791 0,-1.218 0.592,-2.08 2.018,-2.08 1.887,0 3.818,1.891 5.256,4.195 v 10e-4 c 0.189,0.319 0.371,0.643 0.563,0.963 0.001,0.004 0.003,0.007 0.007,0.011 0.32,0.533 0.673,1.039 1.135,1.457 0.081,0.078 0.165,0.146 0.252,0.209 -0.174,-0.8 -0.269,-1.586 -0.269,-2.333 0,-2.94 1.544,-4.571 3.891,-4.571 3.506,0 5.853,4.662 7.101,7.453 0.177,0.419 -0.269,0.623 -0.477,0.121" /></g><g
           transform="translate(79.4091,63.9031)"
           id="g338"><path
             id="path340"
             style="fill:#f5f0e8;fill-opacity:1;fill-rule:nonzero;stroke:none"
             d="M 0,0 C -0.057,-0.487 -0.186,-0.948 -0.378,-1.374 -0.191,-0.948 -0.061,-0.487 0,0" /></g></g></g></g></svg>