<?xml version="1.0" encoding="UTF-8" standalone="no"?>
<svg
   xmlns:dc="http://purl.org/dc/elements/1.1/"
   xmlns:cc="http://creativecommons.org/ns#"
   xmlns:rdf="http://www.w3.org/1999/02/22-rdf-syntax-ns#"
   xmlns:svg="http://www.w3.org/2000/svg"
   xmlns="http://www.w3.org/2000/svg"
   viewBox="0 0 188.976 302.36267"
   height="302.36267"
   width="188.976"
   xml:space="preserve"
   id="svg2"
   version="1.1"><metadata
     id="metadata8"><rdf:RDF><cc:Work
         rdf:about=""><dc:format>image/svg+xml</dc:format><dc:type
           rdf:resource="http://purl.org/dc/dcmitype/StillImage" /></cc:Work></rdf:RDF></metadata><defs
     id="defs6"><clipPath
       id="clipPath20"
       clipPathUnits="userSpaceOnUse"><path
         id="path18"
         d="M 0,0 H 141.732 V 226.771 H 0 Z" /></clipPath><clipPath
       id="clipPath28"
       clipPathUnits="userSpaceOnUse"><path
         id="path26"
         d="m 88.7532,150.446 h 21.3318 v -40.19 H 88.7532 Z" /></clipPath><clipPath
       id="clipPath60"
       clipPathUnits="userSpaceOnUse"><path
         id="path58"
         d="m 83.4541,135.554 h 1.6963 v -10.878 h -1.6963 z" /></clipPath></defs><g
     transform="matrix(1.3333333,0,0,-1.3333333,0,302.36267)"
     id="g10"><path
       id="path12"
       style="fill:#b93666;fill-opacity:1;fill-rule:nonzero;stroke:none"
       d="M 0,0 H 141.732 V 226.771 H 0 Z" /><g
       id="g14"><g
         clip-path="url(#clipPath20)"
         id="g16"><g
           id="g22"><g
             id="g24" /><g
             id="g36"><g
               style="opacity:0.5"
               id="g34"
               clip-path="url(#clipPath28)"><g
                 id="g32"
                 transform="translate(109.9761,110.2561)"><path
                   id="path30"
                   style="fill:#f5f0e8;fill-opacity:1;fill-rule:nonzero;stroke:none"
                   d="M 0,0 C 0.079,0.708 0.122,1.452 0.105,2.256 0.105,1.486 0.079,0.726 0,0 m -21.223,39.901 c 0.166,0.114 0.332,0.21 0.499,0.289 -0.123,-0.035 -0.289,-0.131 -0.499,-0.289" /></g></g></g></g><g
           transform="translate(102.5695,137.6176)"
           id="g38"><path
             id="path40"
             style="fill:#f5f0e8;fill-opacity:1;fill-rule:nonzero;stroke:none"
             d="m 0,0 c 2.65,-5.64 4.652,-12.47 5.037,-17.821 0.262,-3.568 -0.21,-6.489 -1.67,-7.949 -0.42,-0.42 -0.901,-0.691 -1.452,-0.735 -0.07,-0.017 -0.149,-0.026 -0.227,-0.017 -1.19,-0.018 -2.72,0.866 -4.757,2.903 -3.944,3.944 -7.661,10.616 -9.838,17.113 -0.341,1.041 -0.638,2.073 -0.901,3.087 -0.83,3.209 -1.206,6.261 -0.979,8.779 0.184,2.125 0.813,3.874 1.968,5.028 1.915,1.916 4.293,0.936 7.196,-1.967 C -3.769,6.567 -1.906,3.778 0,0 m -42.857,-57.128 c -13.93,13.93 -25.525,44.344 -16.702,53.167 5.107,5.107 11.656,2.142 17.69,-3.892 13.93,-13.93 25.543,-44.221 16.659,-53.105 -5.107,-5.107 -11.604,-2.212 -17.647,3.83 m 40.251,81.91 c -0.603,-0.603 -0.883,-2.387 -2.606,-4.075 -1.058,-1.023 -0.297,-3.55 0.236,-5.046 0.184,-0.515 0.945,-3.078 0.945,-3.078 0.516,-1.88 0.087,-2.133 -1.364,-1.031 -0.245,0.157 -0.49,0.314 -0.726,0.463 -2.492,1.478 -4.915,2.011 -7.171,0.822 0,0 -0.017,0 -0.026,-0.009 -0.166,-0.078 -0.332,-0.175 -0.498,-0.288 -0.018,-0.018 -0.044,-0.027 -0.062,-0.044 -0.043,-0.026 -0.078,-0.061 -0.122,-0.087 -0.219,-0.167 -0.437,-0.333 -0.647,-0.508 -0.072,-0.058 -0.143,-0.116 -0.214,-0.175 -1.936,-1.596 -3.276,-3.811 -3.783,-6.268 -0.213,-1.028 -0.387,-2.264 -0.472,-3.727 V 1.679 c 0.035,-0.315 0.036,-0.682 0.035,-1.102 -0.008,-0.043 -0.008,-0.079 0,-0.14 -0.043,-0.813 -0.052,-1.644 -0.034,-2.501 0.069,-3.48 0.664,-7.205 1.696,-10.878 0.009,-0.044 0.026,-0.096 0.035,-0.14 1.889,-6.716 5.238,-13.195 9.488,-17.445 1.128,-1.128 2.3,-2.072 3.48,-2.781 0.175,-0.192 0.341,-0.376 0.516,-0.551 2.142,-2.142 2.081,-5.334 1.041,-12.408 -0.516,-4.591 -2.204,-8.605 -4.81,-11.211 -4.53,-4.529 -9.811,-4.704 -15.618,-10.511 l -1.215,-1.215 c -1.452,-1.452 -2.099,-1.277 -0.236,1.635 1.801,3.306 3.191,5.623 4.468,8.753 3.411,8.395 4.539,21.258 0.507,34.192 -0.008,0.026 -0.017,0.052 -0.026,0.078 -0.288,0.918 -0.603,1.845 -0.944,2.764 -0.079,0.218 -0.166,0.445 -0.236,0.673 l -0.009,0.009 c -0.822,2.011 -2.116,4.722 -4.066,7.703 -0.009,0.009 -0.018,0.018 -0.018,0.018 -0.122,0.14 -0.271,0.323 -0.428,0.533 -0.612,0.945 -1.286,1.915 -2.029,2.904 -0.035,0.035 -0.053,0.07 -0.087,0.104 -0.027,0.027 -0.044,0.062 -0.07,0.088 -1.268,1.653 -2.729,3.323 -4.434,5.028 -8.535,8.535 -19.15,11.613 -27.912,2.851 -13.24,-13.24 -8.535,-42.429 7.363,-58.326 8.595,-8.596 20.951,-9.934 27.396,-3.489 1.041,1.04 1.452,1.329 1.679,1.102 0.175,-0.175 -0.166,-0.989 -0.866,-2.265 -2.614,-5.046 -7.546,-11.727 -11.551,-15.732 -1.216,-1.215 -1.041,-2.894 -0.35,-4.18 0.7,-1.381 2.326,-2.081 3.603,-0.804 2.265,2.265 3.428,8.989 6.969,12.531 6.095,6.095 15.373,2.728 21.293,8.648 4.066,4.066 2.851,10.511 3.017,18.46 0.122,5.806 0.822,7.083 5.867,12.128 0.718,0.718 1.295,1.47 1.749,2.292 0.009,0.026 0.027,0.043 0.035,0.069 0.184,0.342 0.35,0.7 0.499,1.059 0.052,0.14 0.105,0.279 0.157,0.437 0.131,0.358 0.236,0.726 0.315,1.102 0.052,0.227 0.096,0.463 0.14,0.699 0.009,0.026 0,0.053 0.017,0.07 0.035,0.228 0.07,0.472 0.097,0.709 0.078,0.725 0.105,1.486 0.104,2.256 -0.008,0.481 -0.026,0.97 -0.061,1.46 -0.035,0.56 -0.096,1.128 -0.157,1.696 -0.053,0.543 -0.131,1.093 -0.228,1.644 -0.612,3.813 -1.757,7.599 -2.588,10.266 -0.315,0.84 -0.253,1.391 0.061,1.793 0.027,0.044 0.07,0.087 0.105,0.122 0.35,0.35 0.813,0.237 1.338,-0.76 L 16.956,-33.08 c 2.789,-6.27 0.699,-9.987 -3.944,-14.63 -0.7,-0.7 -0.822,-1.049 -0.472,-1.399 0.402,-0.402 0.752,-0.28 1.504,0.472 2.903,2.903 5.754,6.331 8.246,8.823 l 2.728,2.729 c 2.029,2.028 5.282,4.704 7.31,6.733 0.639,0.638 0.639,0.988 0.298,1.329 -0.35,0.35 -0.639,0.289 -1.277,-0.35 -3.367,-3.366 -6.042,-4.293 -9.059,1.977 L 18.678,-19.798 7.957,2.728 c -2.396,4.722 -4.354,9.392 -6.129,14 -0.989,2.545 -1.907,5.072 -2.816,7.591 -0.35,1.049 -1.093,0.988 -1.618,0.463" /></g><g
           transform="translate(108.752,106.1811)"
           id="g42"><path
             id="path44"
             style="fill:#f5f0e8;fill-opacity:1;fill-rule:nonzero;stroke:none"
             d="M 0,0 C 0.192,0.332 0.367,0.682 0.498,1.058 0.35,0.7 0.184,0.341 0,0" /></g><g
           transform="translate(30.4238,30.4242)"
           id="g46"><path
             id="path48"
             style="fill:#f5f0e8;fill-opacity:1;fill-rule:nonzero;stroke:none"
             d="m 0,0 c -1.937,-1.937 -3.403,-2.819 -5.045,-1.178 -0.587,0.588 -1.233,1.467 -1.996,2.82 L -32.626,49.99 c -2.287,4.286 -1.405,6.103 1.353,8.861 6.865,6.865 16.368,5.694 25.053,-2.992 C 6.632,43.008 15.489,15.489 0,0 m -31.51,60.496 -8.861,-8.861 c -0.472,-0.472 -1.055,-1.024 -1.702,-1.621 -0.291,-0.268 -0.365,-0.699 -0.18,-1.048 l 4.016,-7.55 c 0.055,-0.093 0.105,-0.191 0.157,-0.286 l 23.707,-44.595 c 0.163,-0.304 0.314,-0.609 0.452,-0.901 l 0.006,-0.012 3.433,-6.456 c 0.281,-0.527 0.999,-0.619 1.406,-0.181 0.468,0.503 0.898,0.956 1.273,1.331 L 1.35,-0.532 C 24.057,22.176 12.439,51.165 0.879,62.725 -9.565,73.169 -21.712,70.294 -31.51,60.496" /></g><g
           transform="translate(115.624,207.1808)"
           id="g50"><path
             id="path52"
             style="fill:#f5f0e8;fill-opacity:1;fill-rule:nonzero;stroke:none"
             d="m 0,0 c -1.048,-1.251 -2.542,-2.742 -4.973,-5.173 l -13.519,-13.519 c -0.468,-0.468 -1.041,-1.008 -1.672,-1.598 -0.287,-0.269 -0.36,-0.698 -0.176,-1.045 l 3.824,-7.204 24.038,-45.235 3.557,-6.685 c 0.282,-0.528 1.005,-0.615 1.411,-0.176 0.452,0.489 0.87,0.928 1.232,1.291 l 15.443,15.442 c 3.069,3.07 4.705,4.11 6.217,5.623 1.041,1.041 0.822,2.042 0.219,3.367 -0.761,1.672 -2.466,5.375 -3.311,8.358 -0.174,0.616 -0.677,3.072 -1.793,2.934 -1.333,-0.164 -0.772,-2.193 -0.656,-3.23 0.271,-2.411 2.388,-12.429 -3.868,-18.512 l -5.168,-5.168 c -2.728,-2.728 -3.891,-1.915 -5.806,1.627 L 2.993,-46.439 c -0.761,1.461 -0.35,3.603 0.927,4.88 l 4.757,4.757 c 4.757,4.757 6.833,2.26 8.487,-0.127 0.166,-0.271 0.339,-0.54 0.539,-0.788 0.173,-0.215 0.368,-0.463 0.659,-0.503 0.2,-0.028 0.418,0.057 0.523,0.229 0.078,0.128 0.089,0.288 0.06,0.435 -0.033,0.173 -0.114,0.337 -0.182,0.498 -0.298,0.707 -0.747,1.345 -1.142,1.999 -0.43,0.712 -0.852,1.429 -1.265,2.151 -0.827,1.443 -1.621,2.905 -2.382,4.385 -0.47,0.915 -0.928,1.836 -1.372,2.764 -0.102,0.213 -0.185,0.433 -0.3,0.64 -0.135,0.24 -0.323,0.527 -0.775,0.289 -0.425,-0.224 -0.271,-0.842 -0.132,-1.177 2.143,-5.174 1.793,-4.576 -3.295,-9.746 l -4.993,-4.993 c -1.102,-1.102 -2.781,-0.699 -3.664,0.866 l -10.739,20.374 c -1.268,2.318 -1.39,4.871 0.822,7.083 l 2.597,2.598 c 4.239,4.099 5.05,4.776 7.096,6.285 2.17,1.6 2.889,2.162 2.754,2.9 C 1.828,0.156 0.846,1.011 0,0" /></g><g
           id="g54"><g
             id="g56" /><g
             id="g68"><g
               style="opacity:0.5"
               id="g66"
               clip-path="url(#clipPath60)"><g
                 id="g64"
                 transform="translate(83.4541,135.5539)"><path
                   id="path62"
                   style="fill:#f5f0e8;fill-opacity:1;fill-rule:nonzero;stroke:none"
                   d="M 0,0 C 0.149,-2.964 0.629,-6.558 1.696,-10.878 0.665,-7.205 0.07,-3.48 0,0" /></g></g></g></g></g></g></g></svg>